%TF.GenerationSoftware,KiCad,Pcbnew,8.0.7-8.0.7-0~ubuntu22.04.1*%
%TF.CreationDate,2024-12-27T21:55:05+08:00*%
%TF.ProjectId,PCB IREC 2025,50434220-4952-4454-9320-323032352e6b,rev?*%
%TF.SameCoordinates,Original*%
%TF.FileFunction,Legend,Top*%
%TF.FilePolarity,Positive*%
%FSLAX46Y46*%
G04 Gerber Fmt 4.6, Leading zero omitted, Abs format (unit mm)*
G04 Created by KiCad (PCBNEW 8.0.7-8.0.7-0~ubuntu22.04.1) date 2024-12-27 21:55:05*
%MOMM*%
%LPD*%
G01*
G04 APERTURE LIST*
%ADD10C,0.300000*%
%ADD11C,0.100000*%
%ADD12C,0.150000*%
%ADD13C,0.120000*%
%ADD14C,0.000000*%
G04 APERTURE END LIST*
D10*
X134340225Y-131800828D02*
X135197368Y-131800828D01*
X134768796Y-133300828D02*
X134768796Y-131800828D01*
X135697367Y-133300828D02*
X135697367Y-131800828D01*
X135697367Y-132515114D02*
X136554510Y-132515114D01*
X136554510Y-133300828D02*
X136554510Y-131800828D01*
X137268796Y-132515114D02*
X137768796Y-132515114D01*
X137983082Y-133300828D02*
X137268796Y-133300828D01*
X137268796Y-133300828D02*
X137268796Y-131800828D01*
X137268796Y-131800828D02*
X137983082Y-131800828D01*
X139768796Y-133300828D02*
X139768796Y-131800828D01*
X139768796Y-131800828D02*
X140268796Y-132872257D01*
X140268796Y-132872257D02*
X140768796Y-131800828D01*
X140768796Y-131800828D02*
X140768796Y-133300828D01*
X141483082Y-133300828D02*
X141483082Y-131800828D01*
X142125940Y-133229400D02*
X142340226Y-133300828D01*
X142340226Y-133300828D02*
X142697368Y-133300828D01*
X142697368Y-133300828D02*
X142840226Y-133229400D01*
X142840226Y-133229400D02*
X142911654Y-133157971D01*
X142911654Y-133157971D02*
X142983083Y-133015114D01*
X142983083Y-133015114D02*
X142983083Y-132872257D01*
X142983083Y-132872257D02*
X142911654Y-132729400D01*
X142911654Y-132729400D02*
X142840226Y-132657971D01*
X142840226Y-132657971D02*
X142697368Y-132586542D01*
X142697368Y-132586542D02*
X142411654Y-132515114D01*
X142411654Y-132515114D02*
X142268797Y-132443685D01*
X142268797Y-132443685D02*
X142197368Y-132372257D01*
X142197368Y-132372257D02*
X142125940Y-132229400D01*
X142125940Y-132229400D02*
X142125940Y-132086542D01*
X142125940Y-132086542D02*
X142197368Y-131943685D01*
X142197368Y-131943685D02*
X142268797Y-131872257D01*
X142268797Y-131872257D02*
X142411654Y-131800828D01*
X142411654Y-131800828D02*
X142768797Y-131800828D01*
X142768797Y-131800828D02*
X142983083Y-131872257D01*
X143554511Y-133229400D02*
X143768797Y-133300828D01*
X143768797Y-133300828D02*
X144125939Y-133300828D01*
X144125939Y-133300828D02*
X144268797Y-133229400D01*
X144268797Y-133229400D02*
X144340225Y-133157971D01*
X144340225Y-133157971D02*
X144411654Y-133015114D01*
X144411654Y-133015114D02*
X144411654Y-132872257D01*
X144411654Y-132872257D02*
X144340225Y-132729400D01*
X144340225Y-132729400D02*
X144268797Y-132657971D01*
X144268797Y-132657971D02*
X144125939Y-132586542D01*
X144125939Y-132586542D02*
X143840225Y-132515114D01*
X143840225Y-132515114D02*
X143697368Y-132443685D01*
X143697368Y-132443685D02*
X143625939Y-132372257D01*
X143625939Y-132372257D02*
X143554511Y-132229400D01*
X143554511Y-132229400D02*
X143554511Y-132086542D01*
X143554511Y-132086542D02*
X143625939Y-131943685D01*
X143625939Y-131943685D02*
X143697368Y-131872257D01*
X143697368Y-131872257D02*
X143840225Y-131800828D01*
X143840225Y-131800828D02*
X144197368Y-131800828D01*
X144197368Y-131800828D02*
X144411654Y-131872257D01*
X145768796Y-133300828D02*
X145054510Y-133300828D01*
X145054510Y-133300828D02*
X145054510Y-131800828D01*
X146268796Y-132515114D02*
X146768796Y-132515114D01*
X146983082Y-133300828D02*
X146268796Y-133300828D01*
X146268796Y-133300828D02*
X146268796Y-131800828D01*
X146268796Y-131800828D02*
X146983082Y-131800828D01*
X148768796Y-133300828D02*
X148768796Y-131800828D01*
X149625939Y-133300828D02*
X148983082Y-132443685D01*
X149625939Y-131800828D02*
X148768796Y-132657971D01*
X150268796Y-133300828D02*
X150268796Y-131800828D01*
X150268796Y-131800828D02*
X151125939Y-133300828D01*
X151125939Y-133300828D02*
X151125939Y-131800828D01*
X152125940Y-131800828D02*
X152411654Y-131800828D01*
X152411654Y-131800828D02*
X152554511Y-131872257D01*
X152554511Y-131872257D02*
X152697368Y-132015114D01*
X152697368Y-132015114D02*
X152768797Y-132300828D01*
X152768797Y-132300828D02*
X152768797Y-132800828D01*
X152768797Y-132800828D02*
X152697368Y-133086542D01*
X152697368Y-133086542D02*
X152554511Y-133229400D01*
X152554511Y-133229400D02*
X152411654Y-133300828D01*
X152411654Y-133300828D02*
X152125940Y-133300828D01*
X152125940Y-133300828D02*
X151983083Y-133229400D01*
X151983083Y-133229400D02*
X151840225Y-133086542D01*
X151840225Y-133086542D02*
X151768797Y-132800828D01*
X151768797Y-132800828D02*
X151768797Y-132300828D01*
X151768797Y-132300828D02*
X151840225Y-132015114D01*
X151840225Y-132015114D02*
X151983083Y-131872257D01*
X151983083Y-131872257D02*
X152125940Y-131800828D01*
X153268797Y-131800828D02*
X153625940Y-133300828D01*
X153625940Y-133300828D02*
X153911654Y-132229400D01*
X153911654Y-132229400D02*
X154197369Y-133300828D01*
X154197369Y-133300828D02*
X154554512Y-131800828D01*
X155054512Y-133229400D02*
X155268798Y-133300828D01*
X155268798Y-133300828D02*
X155625940Y-133300828D01*
X155625940Y-133300828D02*
X155768798Y-133229400D01*
X155768798Y-133229400D02*
X155840226Y-133157971D01*
X155840226Y-133157971D02*
X155911655Y-133015114D01*
X155911655Y-133015114D02*
X155911655Y-132872257D01*
X155911655Y-132872257D02*
X155840226Y-132729400D01*
X155840226Y-132729400D02*
X155768798Y-132657971D01*
X155768798Y-132657971D02*
X155625940Y-132586542D01*
X155625940Y-132586542D02*
X155340226Y-132515114D01*
X155340226Y-132515114D02*
X155197369Y-132443685D01*
X155197369Y-132443685D02*
X155125940Y-132372257D01*
X155125940Y-132372257D02*
X155054512Y-132229400D01*
X155054512Y-132229400D02*
X155054512Y-132086542D01*
X155054512Y-132086542D02*
X155125940Y-131943685D01*
X155125940Y-131943685D02*
X155197369Y-131872257D01*
X155197369Y-131872257D02*
X155340226Y-131800828D01*
X155340226Y-131800828D02*
X155697369Y-131800828D01*
X155697369Y-131800828D02*
X155911655Y-131872257D01*
X157554511Y-131800828D02*
X157911654Y-133300828D01*
X157911654Y-133300828D02*
X158197368Y-132229400D01*
X158197368Y-132229400D02*
X158483083Y-133300828D01*
X158483083Y-133300828D02*
X158840226Y-131800828D01*
X159411654Y-133300828D02*
X159411654Y-131800828D01*
X159411654Y-132515114D02*
X160268797Y-132515114D01*
X160268797Y-133300828D02*
X160268797Y-131800828D01*
X160983083Y-132515114D02*
X161483083Y-132515114D01*
X161697369Y-133300828D02*
X160983083Y-133300828D01*
X160983083Y-133300828D02*
X160983083Y-131800828D01*
X160983083Y-131800828D02*
X161697369Y-131800828D01*
X163197369Y-133300828D02*
X162697369Y-132586542D01*
X162340226Y-133300828D02*
X162340226Y-131800828D01*
X162340226Y-131800828D02*
X162911655Y-131800828D01*
X162911655Y-131800828D02*
X163054512Y-131872257D01*
X163054512Y-131872257D02*
X163125941Y-131943685D01*
X163125941Y-131943685D02*
X163197369Y-132086542D01*
X163197369Y-132086542D02*
X163197369Y-132300828D01*
X163197369Y-132300828D02*
X163125941Y-132443685D01*
X163125941Y-132443685D02*
X163054512Y-132515114D01*
X163054512Y-132515114D02*
X162911655Y-132586542D01*
X162911655Y-132586542D02*
X162340226Y-132586542D01*
X163840226Y-132515114D02*
X164340226Y-132515114D01*
X164554512Y-133300828D02*
X163840226Y-133300828D01*
X163840226Y-133300828D02*
X163840226Y-131800828D01*
X163840226Y-131800828D02*
X164554512Y-131800828D01*
X166340226Y-133300828D02*
X166340226Y-131800828D01*
X166840227Y-131800828D02*
X167697370Y-131800828D01*
X167268798Y-133300828D02*
X167268798Y-131800828D01*
X169340226Y-133300828D02*
X169340226Y-131800828D01*
X169983084Y-133229400D02*
X170197370Y-133300828D01*
X170197370Y-133300828D02*
X170554512Y-133300828D01*
X170554512Y-133300828D02*
X170697370Y-133229400D01*
X170697370Y-133229400D02*
X170768798Y-133157971D01*
X170768798Y-133157971D02*
X170840227Y-133015114D01*
X170840227Y-133015114D02*
X170840227Y-132872257D01*
X170840227Y-132872257D02*
X170768798Y-132729400D01*
X170768798Y-132729400D02*
X170697370Y-132657971D01*
X170697370Y-132657971D02*
X170554512Y-132586542D01*
X170554512Y-132586542D02*
X170268798Y-132515114D01*
X170268798Y-132515114D02*
X170125941Y-132443685D01*
X170125941Y-132443685D02*
X170054512Y-132372257D01*
X170054512Y-132372257D02*
X169983084Y-132229400D01*
X169983084Y-132229400D02*
X169983084Y-132086542D01*
X169983084Y-132086542D02*
X170054512Y-131943685D01*
X170054512Y-131943685D02*
X170125941Y-131872257D01*
X170125941Y-131872257D02*
X170268798Y-131800828D01*
X170268798Y-131800828D02*
X170625941Y-131800828D01*
X170625941Y-131800828D02*
X170840227Y-131872257D01*
X171483083Y-133157971D02*
X171554512Y-133229400D01*
X171554512Y-133229400D02*
X171483083Y-133300828D01*
X171483083Y-133300828D02*
X171411655Y-133229400D01*
X171411655Y-133229400D02*
X171483083Y-133157971D01*
X171483083Y-133157971D02*
X171483083Y-133300828D01*
X172197369Y-133157971D02*
X172268798Y-133229400D01*
X172268798Y-133229400D02*
X172197369Y-133300828D01*
X172197369Y-133300828D02*
X172125941Y-133229400D01*
X172125941Y-133229400D02*
X172197369Y-133157971D01*
X172197369Y-133157971D02*
X172197369Y-133300828D01*
D11*
X156830143Y-116246419D02*
X156830143Y-115246419D01*
X156830143Y-115246419D02*
X157068238Y-115246419D01*
X157068238Y-115246419D02*
X157211095Y-115294038D01*
X157211095Y-115294038D02*
X157306333Y-115389276D01*
X157306333Y-115389276D02*
X157353952Y-115484514D01*
X157353952Y-115484514D02*
X157401571Y-115674990D01*
X157401571Y-115674990D02*
X157401571Y-115817847D01*
X157401571Y-115817847D02*
X157353952Y-116008323D01*
X157353952Y-116008323D02*
X157306333Y-116103561D01*
X157306333Y-116103561D02*
X157211095Y-116198800D01*
X157211095Y-116198800D02*
X157068238Y-116246419D01*
X157068238Y-116246419D02*
X156830143Y-116246419D01*
X157782524Y-116198800D02*
X157925381Y-116246419D01*
X157925381Y-116246419D02*
X158163476Y-116246419D01*
X158163476Y-116246419D02*
X158258714Y-116198800D01*
X158258714Y-116198800D02*
X158306333Y-116151180D01*
X158306333Y-116151180D02*
X158353952Y-116055942D01*
X158353952Y-116055942D02*
X158353952Y-115960704D01*
X158353952Y-115960704D02*
X158306333Y-115865466D01*
X158306333Y-115865466D02*
X158258714Y-115817847D01*
X158258714Y-115817847D02*
X158163476Y-115770228D01*
X158163476Y-115770228D02*
X157973000Y-115722609D01*
X157973000Y-115722609D02*
X157877762Y-115674990D01*
X157877762Y-115674990D02*
X157830143Y-115627371D01*
X157830143Y-115627371D02*
X157782524Y-115532133D01*
X157782524Y-115532133D02*
X157782524Y-115436895D01*
X157782524Y-115436895D02*
X157830143Y-115341657D01*
X157830143Y-115341657D02*
X157877762Y-115294038D01*
X157877762Y-115294038D02*
X157973000Y-115246419D01*
X157973000Y-115246419D02*
X158211095Y-115246419D01*
X158211095Y-115246419D02*
X158353952Y-115294038D01*
X159306333Y-116246419D02*
X158734905Y-116246419D01*
X159020619Y-116246419D02*
X159020619Y-115246419D01*
X159020619Y-115246419D02*
X158925381Y-115389276D01*
X158925381Y-115389276D02*
X158830143Y-115484514D01*
X158830143Y-115484514D02*
X158734905Y-115532133D01*
X159639667Y-115246419D02*
X160258714Y-115246419D01*
X160258714Y-115246419D02*
X159925381Y-115627371D01*
X159925381Y-115627371D02*
X160068238Y-115627371D01*
X160068238Y-115627371D02*
X160163476Y-115674990D01*
X160163476Y-115674990D02*
X160211095Y-115722609D01*
X160211095Y-115722609D02*
X160258714Y-115817847D01*
X160258714Y-115817847D02*
X160258714Y-116055942D01*
X160258714Y-116055942D02*
X160211095Y-116151180D01*
X160211095Y-116151180D02*
X160163476Y-116198800D01*
X160163476Y-116198800D02*
X160068238Y-116246419D01*
X160068238Y-116246419D02*
X159782524Y-116246419D01*
X159782524Y-116246419D02*
X159687286Y-116198800D01*
X159687286Y-116198800D02*
X159639667Y-116151180D01*
X160877762Y-115246419D02*
X160973000Y-115246419D01*
X160973000Y-115246419D02*
X161068238Y-115294038D01*
X161068238Y-115294038D02*
X161115857Y-115341657D01*
X161115857Y-115341657D02*
X161163476Y-115436895D01*
X161163476Y-115436895D02*
X161211095Y-115627371D01*
X161211095Y-115627371D02*
X161211095Y-115865466D01*
X161211095Y-115865466D02*
X161163476Y-116055942D01*
X161163476Y-116055942D02*
X161115857Y-116151180D01*
X161115857Y-116151180D02*
X161068238Y-116198800D01*
X161068238Y-116198800D02*
X160973000Y-116246419D01*
X160973000Y-116246419D02*
X160877762Y-116246419D01*
X160877762Y-116246419D02*
X160782524Y-116198800D01*
X160782524Y-116198800D02*
X160734905Y-116151180D01*
X160734905Y-116151180D02*
X160687286Y-116055942D01*
X160687286Y-116055942D02*
X160639667Y-115865466D01*
X160639667Y-115865466D02*
X160639667Y-115627371D01*
X160639667Y-115627371D02*
X160687286Y-115436895D01*
X160687286Y-115436895D02*
X160734905Y-115341657D01*
X160734905Y-115341657D02*
X160782524Y-115294038D01*
X160782524Y-115294038D02*
X160877762Y-115246419D01*
X161544429Y-115246419D02*
X162211095Y-115246419D01*
X162211095Y-115246419D02*
X161782524Y-116246419D01*
X136115419Y-60165904D02*
X135115419Y-60165904D01*
X135115419Y-60165904D02*
X135829704Y-59832571D01*
X135829704Y-59832571D02*
X135115419Y-59499238D01*
X135115419Y-59499238D02*
X136115419Y-59499238D01*
X136115419Y-59023047D02*
X135115419Y-59023047D01*
X135115419Y-59023047D02*
X135115419Y-58642095D01*
X135115419Y-58642095D02*
X135163038Y-58546857D01*
X135163038Y-58546857D02*
X135210657Y-58499238D01*
X135210657Y-58499238D02*
X135305895Y-58451619D01*
X135305895Y-58451619D02*
X135448752Y-58451619D01*
X135448752Y-58451619D02*
X135543990Y-58499238D01*
X135543990Y-58499238D02*
X135591609Y-58546857D01*
X135591609Y-58546857D02*
X135639228Y-58642095D01*
X135639228Y-58642095D02*
X135639228Y-59023047D01*
X135115419Y-58023047D02*
X135924942Y-58023047D01*
X135924942Y-58023047D02*
X136020180Y-57975428D01*
X136020180Y-57975428D02*
X136067800Y-57927809D01*
X136067800Y-57927809D02*
X136115419Y-57832571D01*
X136115419Y-57832571D02*
X136115419Y-57642095D01*
X136115419Y-57642095D02*
X136067800Y-57546857D01*
X136067800Y-57546857D02*
X136020180Y-57499238D01*
X136020180Y-57499238D02*
X135924942Y-57451619D01*
X135924942Y-57451619D02*
X135115419Y-57451619D01*
X135115419Y-56546857D02*
X135115419Y-56737333D01*
X135115419Y-56737333D02*
X135163038Y-56832571D01*
X135163038Y-56832571D02*
X135210657Y-56880190D01*
X135210657Y-56880190D02*
X135353514Y-56975428D01*
X135353514Y-56975428D02*
X135543990Y-57023047D01*
X135543990Y-57023047D02*
X135924942Y-57023047D01*
X135924942Y-57023047D02*
X136020180Y-56975428D01*
X136020180Y-56975428D02*
X136067800Y-56927809D01*
X136067800Y-56927809D02*
X136115419Y-56832571D01*
X136115419Y-56832571D02*
X136115419Y-56642095D01*
X136115419Y-56642095D02*
X136067800Y-56546857D01*
X136067800Y-56546857D02*
X136020180Y-56499238D01*
X136020180Y-56499238D02*
X135924942Y-56451619D01*
X135924942Y-56451619D02*
X135686847Y-56451619D01*
X135686847Y-56451619D02*
X135591609Y-56499238D01*
X135591609Y-56499238D02*
X135543990Y-56546857D01*
X135543990Y-56546857D02*
X135496371Y-56642095D01*
X135496371Y-56642095D02*
X135496371Y-56832571D01*
X135496371Y-56832571D02*
X135543990Y-56927809D01*
X135543990Y-56927809D02*
X135591609Y-56975428D01*
X135591609Y-56975428D02*
X135686847Y-57023047D01*
X135115419Y-55832571D02*
X135115419Y-55737333D01*
X135115419Y-55737333D02*
X135163038Y-55642095D01*
X135163038Y-55642095D02*
X135210657Y-55594476D01*
X135210657Y-55594476D02*
X135305895Y-55546857D01*
X135305895Y-55546857D02*
X135496371Y-55499238D01*
X135496371Y-55499238D02*
X135734466Y-55499238D01*
X135734466Y-55499238D02*
X135924942Y-55546857D01*
X135924942Y-55546857D02*
X136020180Y-55594476D01*
X136020180Y-55594476D02*
X136067800Y-55642095D01*
X136067800Y-55642095D02*
X136115419Y-55737333D01*
X136115419Y-55737333D02*
X136115419Y-55832571D01*
X136115419Y-55832571D02*
X136067800Y-55927809D01*
X136067800Y-55927809D02*
X136020180Y-55975428D01*
X136020180Y-55975428D02*
X135924942Y-56023047D01*
X135924942Y-56023047D02*
X135734466Y-56070666D01*
X135734466Y-56070666D02*
X135496371Y-56070666D01*
X135496371Y-56070666D02*
X135305895Y-56023047D01*
X135305895Y-56023047D02*
X135210657Y-55975428D01*
X135210657Y-55975428D02*
X135163038Y-55927809D01*
X135163038Y-55927809D02*
X135115419Y-55832571D01*
X135115419Y-54594476D02*
X135115419Y-55070666D01*
X135115419Y-55070666D02*
X135591609Y-55118285D01*
X135591609Y-55118285D02*
X135543990Y-55070666D01*
X135543990Y-55070666D02*
X135496371Y-54975428D01*
X135496371Y-54975428D02*
X135496371Y-54737333D01*
X135496371Y-54737333D02*
X135543990Y-54642095D01*
X135543990Y-54642095D02*
X135591609Y-54594476D01*
X135591609Y-54594476D02*
X135686847Y-54546857D01*
X135686847Y-54546857D02*
X135924942Y-54546857D01*
X135924942Y-54546857D02*
X136020180Y-54594476D01*
X136020180Y-54594476D02*
X136067800Y-54642095D01*
X136067800Y-54642095D02*
X136115419Y-54737333D01*
X136115419Y-54737333D02*
X136115419Y-54975428D01*
X136115419Y-54975428D02*
X136067800Y-55070666D01*
X136067800Y-55070666D02*
X136020180Y-55118285D01*
X135115419Y-53927809D02*
X135115419Y-53832571D01*
X135115419Y-53832571D02*
X135163038Y-53737333D01*
X135163038Y-53737333D02*
X135210657Y-53689714D01*
X135210657Y-53689714D02*
X135305895Y-53642095D01*
X135305895Y-53642095D02*
X135496371Y-53594476D01*
X135496371Y-53594476D02*
X135734466Y-53594476D01*
X135734466Y-53594476D02*
X135924942Y-53642095D01*
X135924942Y-53642095D02*
X136020180Y-53689714D01*
X136020180Y-53689714D02*
X136067800Y-53737333D01*
X136067800Y-53737333D02*
X136115419Y-53832571D01*
X136115419Y-53832571D02*
X136115419Y-53927809D01*
X136115419Y-53927809D02*
X136067800Y-54023047D01*
X136067800Y-54023047D02*
X136020180Y-54070666D01*
X136020180Y-54070666D02*
X135924942Y-54118285D01*
X135924942Y-54118285D02*
X135734466Y-54165904D01*
X135734466Y-54165904D02*
X135496371Y-54165904D01*
X135496371Y-54165904D02*
X135305895Y-54118285D01*
X135305895Y-54118285D02*
X135210657Y-54070666D01*
X135210657Y-54070666D02*
X135163038Y-54023047D01*
X135163038Y-54023047D02*
X135115419Y-53927809D01*
X158531390Y-61671428D02*
X158483771Y-61814285D01*
X158483771Y-61814285D02*
X158436152Y-61861904D01*
X158436152Y-61861904D02*
X158340914Y-61909523D01*
X158340914Y-61909523D02*
X158198057Y-61909523D01*
X158198057Y-61909523D02*
X158102819Y-61861904D01*
X158102819Y-61861904D02*
X158055200Y-61814285D01*
X158055200Y-61814285D02*
X158007580Y-61719047D01*
X158007580Y-61719047D02*
X158007580Y-61338095D01*
X158007580Y-61338095D02*
X159007580Y-61338095D01*
X159007580Y-61338095D02*
X159007580Y-61671428D01*
X159007580Y-61671428D02*
X158959961Y-61766666D01*
X158959961Y-61766666D02*
X158912342Y-61814285D01*
X158912342Y-61814285D02*
X158817104Y-61861904D01*
X158817104Y-61861904D02*
X158721866Y-61861904D01*
X158721866Y-61861904D02*
X158626628Y-61814285D01*
X158626628Y-61814285D02*
X158579009Y-61766666D01*
X158579009Y-61766666D02*
X158531390Y-61671428D01*
X158531390Y-61671428D02*
X158531390Y-61338095D01*
X158007580Y-62338095D02*
X159007580Y-62338095D01*
X159007580Y-62338095D02*
X158293295Y-62671428D01*
X158293295Y-62671428D02*
X159007580Y-63004761D01*
X159007580Y-63004761D02*
X158007580Y-63004761D01*
X158007580Y-63480952D02*
X159007580Y-63480952D01*
X159007580Y-63480952D02*
X159007580Y-63861904D01*
X159007580Y-63861904D02*
X158959961Y-63957142D01*
X158959961Y-63957142D02*
X158912342Y-64004761D01*
X158912342Y-64004761D02*
X158817104Y-64052380D01*
X158817104Y-64052380D02*
X158674247Y-64052380D01*
X158674247Y-64052380D02*
X158579009Y-64004761D01*
X158579009Y-64004761D02*
X158531390Y-63957142D01*
X158531390Y-63957142D02*
X158483771Y-63861904D01*
X158483771Y-63861904D02*
X158483771Y-63480952D01*
X158912342Y-64433333D02*
X158959961Y-64480952D01*
X158959961Y-64480952D02*
X159007580Y-64576190D01*
X159007580Y-64576190D02*
X159007580Y-64814285D01*
X159007580Y-64814285D02*
X158959961Y-64909523D01*
X158959961Y-64909523D02*
X158912342Y-64957142D01*
X158912342Y-64957142D02*
X158817104Y-65004761D01*
X158817104Y-65004761D02*
X158721866Y-65004761D01*
X158721866Y-65004761D02*
X158579009Y-64957142D01*
X158579009Y-64957142D02*
X158007580Y-64385714D01*
X158007580Y-64385714D02*
X158007580Y-65004761D01*
X158579009Y-65576190D02*
X158626628Y-65480952D01*
X158626628Y-65480952D02*
X158674247Y-65433333D01*
X158674247Y-65433333D02*
X158769485Y-65385714D01*
X158769485Y-65385714D02*
X158817104Y-65385714D01*
X158817104Y-65385714D02*
X158912342Y-65433333D01*
X158912342Y-65433333D02*
X158959961Y-65480952D01*
X158959961Y-65480952D02*
X159007580Y-65576190D01*
X159007580Y-65576190D02*
X159007580Y-65766666D01*
X159007580Y-65766666D02*
X158959961Y-65861904D01*
X158959961Y-65861904D02*
X158912342Y-65909523D01*
X158912342Y-65909523D02*
X158817104Y-65957142D01*
X158817104Y-65957142D02*
X158769485Y-65957142D01*
X158769485Y-65957142D02*
X158674247Y-65909523D01*
X158674247Y-65909523D02*
X158626628Y-65861904D01*
X158626628Y-65861904D02*
X158579009Y-65766666D01*
X158579009Y-65766666D02*
X158579009Y-65576190D01*
X158579009Y-65576190D02*
X158531390Y-65480952D01*
X158531390Y-65480952D02*
X158483771Y-65433333D01*
X158483771Y-65433333D02*
X158388533Y-65385714D01*
X158388533Y-65385714D02*
X158198057Y-65385714D01*
X158198057Y-65385714D02*
X158102819Y-65433333D01*
X158102819Y-65433333D02*
X158055200Y-65480952D01*
X158055200Y-65480952D02*
X158007580Y-65576190D01*
X158007580Y-65576190D02*
X158007580Y-65766666D01*
X158007580Y-65766666D02*
X158055200Y-65861904D01*
X158055200Y-65861904D02*
X158102819Y-65909523D01*
X158102819Y-65909523D02*
X158198057Y-65957142D01*
X158198057Y-65957142D02*
X158388533Y-65957142D01*
X158388533Y-65957142D02*
X158483771Y-65909523D01*
X158483771Y-65909523D02*
X158531390Y-65861904D01*
X158531390Y-65861904D02*
X158579009Y-65766666D01*
X159007580Y-66576190D02*
X159007580Y-66671428D01*
X159007580Y-66671428D02*
X158959961Y-66766666D01*
X158959961Y-66766666D02*
X158912342Y-66814285D01*
X158912342Y-66814285D02*
X158817104Y-66861904D01*
X158817104Y-66861904D02*
X158626628Y-66909523D01*
X158626628Y-66909523D02*
X158388533Y-66909523D01*
X158388533Y-66909523D02*
X158198057Y-66861904D01*
X158198057Y-66861904D02*
X158102819Y-66814285D01*
X158102819Y-66814285D02*
X158055200Y-66766666D01*
X158055200Y-66766666D02*
X158007580Y-66671428D01*
X158007580Y-66671428D02*
X158007580Y-66576190D01*
X158007580Y-66576190D02*
X158055200Y-66480952D01*
X158055200Y-66480952D02*
X158102819Y-66433333D01*
X158102819Y-66433333D02*
X158198057Y-66385714D01*
X158198057Y-66385714D02*
X158388533Y-66338095D01*
X158388533Y-66338095D02*
X158626628Y-66338095D01*
X158626628Y-66338095D02*
X158817104Y-66385714D01*
X158817104Y-66385714D02*
X158912342Y-66433333D01*
X158912342Y-66433333D02*
X158959961Y-66480952D01*
X158959961Y-66480952D02*
X159007580Y-66576190D01*
X176219048Y-68073419D02*
X176219048Y-67073419D01*
X176695238Y-68073419D02*
X176695238Y-67073419D01*
X176695238Y-67073419D02*
X177266666Y-68073419D01*
X177266666Y-68073419D02*
X177266666Y-67073419D01*
X177695238Y-67787704D02*
X178171428Y-67787704D01*
X177600000Y-68073419D02*
X177933333Y-67073419D01*
X177933333Y-67073419D02*
X178266666Y-68073419D01*
X178552381Y-67168657D02*
X178600000Y-67121038D01*
X178600000Y-67121038D02*
X178695238Y-67073419D01*
X178695238Y-67073419D02*
X178933333Y-67073419D01*
X178933333Y-67073419D02*
X179028571Y-67121038D01*
X179028571Y-67121038D02*
X179076190Y-67168657D01*
X179076190Y-67168657D02*
X179123809Y-67263895D01*
X179123809Y-67263895D02*
X179123809Y-67359133D01*
X179123809Y-67359133D02*
X179076190Y-67501990D01*
X179076190Y-67501990D02*
X178504762Y-68073419D01*
X178504762Y-68073419D02*
X179123809Y-68073419D01*
X180076190Y-68073419D02*
X179504762Y-68073419D01*
X179790476Y-68073419D02*
X179790476Y-67073419D01*
X179790476Y-67073419D02*
X179695238Y-67216276D01*
X179695238Y-67216276D02*
X179600000Y-67311514D01*
X179600000Y-67311514D02*
X179504762Y-67359133D01*
X180552381Y-68073419D02*
X180742857Y-68073419D01*
X180742857Y-68073419D02*
X180838095Y-68025800D01*
X180838095Y-68025800D02*
X180885714Y-67978180D01*
X180885714Y-67978180D02*
X180980952Y-67835323D01*
X180980952Y-67835323D02*
X181028571Y-67644847D01*
X181028571Y-67644847D02*
X181028571Y-67263895D01*
X181028571Y-67263895D02*
X180980952Y-67168657D01*
X180980952Y-67168657D02*
X180933333Y-67121038D01*
X180933333Y-67121038D02*
X180838095Y-67073419D01*
X180838095Y-67073419D02*
X180647619Y-67073419D01*
X180647619Y-67073419D02*
X180552381Y-67121038D01*
X180552381Y-67121038D02*
X180504762Y-67168657D01*
X180504762Y-67168657D02*
X180457143Y-67263895D01*
X180457143Y-67263895D02*
X180457143Y-67501990D01*
X180457143Y-67501990D02*
X180504762Y-67597228D01*
X180504762Y-67597228D02*
X180552381Y-67644847D01*
X180552381Y-67644847D02*
X180647619Y-67692466D01*
X180647619Y-67692466D02*
X180838095Y-67692466D01*
X180838095Y-67692466D02*
X180933333Y-67644847D01*
X180933333Y-67644847D02*
X180980952Y-67597228D01*
X180980952Y-67597228D02*
X181028571Y-67501990D01*
X182453333Y-119061419D02*
X181977143Y-119061419D01*
X181977143Y-119061419D02*
X181977143Y-118061419D01*
X182739048Y-119013800D02*
X182881905Y-119061419D01*
X182881905Y-119061419D02*
X183120000Y-119061419D01*
X183120000Y-119061419D02*
X183215238Y-119013800D01*
X183215238Y-119013800D02*
X183262857Y-118966180D01*
X183262857Y-118966180D02*
X183310476Y-118870942D01*
X183310476Y-118870942D02*
X183310476Y-118775704D01*
X183310476Y-118775704D02*
X183262857Y-118680466D01*
X183262857Y-118680466D02*
X183215238Y-118632847D01*
X183215238Y-118632847D02*
X183120000Y-118585228D01*
X183120000Y-118585228D02*
X182929524Y-118537609D01*
X182929524Y-118537609D02*
X182834286Y-118489990D01*
X182834286Y-118489990D02*
X182786667Y-118442371D01*
X182786667Y-118442371D02*
X182739048Y-118347133D01*
X182739048Y-118347133D02*
X182739048Y-118251895D01*
X182739048Y-118251895D02*
X182786667Y-118156657D01*
X182786667Y-118156657D02*
X182834286Y-118109038D01*
X182834286Y-118109038D02*
X182929524Y-118061419D01*
X182929524Y-118061419D02*
X183167619Y-118061419D01*
X183167619Y-118061419D02*
X183310476Y-118109038D01*
X183739048Y-119061419D02*
X183739048Y-118061419D01*
X183739048Y-118061419D02*
X184072381Y-118775704D01*
X184072381Y-118775704D02*
X184405714Y-118061419D01*
X184405714Y-118061419D02*
X184405714Y-119061419D01*
X184929524Y-119061419D02*
X185120000Y-119061419D01*
X185120000Y-119061419D02*
X185215238Y-119013800D01*
X185215238Y-119013800D02*
X185262857Y-118966180D01*
X185262857Y-118966180D02*
X185358095Y-118823323D01*
X185358095Y-118823323D02*
X185405714Y-118632847D01*
X185405714Y-118632847D02*
X185405714Y-118251895D01*
X185405714Y-118251895D02*
X185358095Y-118156657D01*
X185358095Y-118156657D02*
X185310476Y-118109038D01*
X185310476Y-118109038D02*
X185215238Y-118061419D01*
X185215238Y-118061419D02*
X185024762Y-118061419D01*
X185024762Y-118061419D02*
X184929524Y-118109038D01*
X184929524Y-118109038D02*
X184881905Y-118156657D01*
X184881905Y-118156657D02*
X184834286Y-118251895D01*
X184834286Y-118251895D02*
X184834286Y-118489990D01*
X184834286Y-118489990D02*
X184881905Y-118585228D01*
X184881905Y-118585228D02*
X184929524Y-118632847D01*
X184929524Y-118632847D02*
X185024762Y-118680466D01*
X185024762Y-118680466D02*
X185215238Y-118680466D01*
X185215238Y-118680466D02*
X185310476Y-118632847D01*
X185310476Y-118632847D02*
X185358095Y-118585228D01*
X185358095Y-118585228D02*
X185405714Y-118489990D01*
X185834286Y-119061419D02*
X185834286Y-118061419D01*
X185834286Y-118061419D02*
X186072381Y-118061419D01*
X186072381Y-118061419D02*
X186215238Y-118109038D01*
X186215238Y-118109038D02*
X186310476Y-118204276D01*
X186310476Y-118204276D02*
X186358095Y-118299514D01*
X186358095Y-118299514D02*
X186405714Y-118489990D01*
X186405714Y-118489990D02*
X186405714Y-118632847D01*
X186405714Y-118632847D02*
X186358095Y-118823323D01*
X186358095Y-118823323D02*
X186310476Y-118918561D01*
X186310476Y-118918561D02*
X186215238Y-119013800D01*
X186215238Y-119013800D02*
X186072381Y-119061419D01*
X186072381Y-119061419D02*
X185834286Y-119061419D01*
X186786667Y-119013800D02*
X186929524Y-119061419D01*
X186929524Y-119061419D02*
X187167619Y-119061419D01*
X187167619Y-119061419D02*
X187262857Y-119013800D01*
X187262857Y-119013800D02*
X187310476Y-118966180D01*
X187310476Y-118966180D02*
X187358095Y-118870942D01*
X187358095Y-118870942D02*
X187358095Y-118775704D01*
X187358095Y-118775704D02*
X187310476Y-118680466D01*
X187310476Y-118680466D02*
X187262857Y-118632847D01*
X187262857Y-118632847D02*
X187167619Y-118585228D01*
X187167619Y-118585228D02*
X186977143Y-118537609D01*
X186977143Y-118537609D02*
X186881905Y-118489990D01*
X186881905Y-118489990D02*
X186834286Y-118442371D01*
X186834286Y-118442371D02*
X186786667Y-118347133D01*
X186786667Y-118347133D02*
X186786667Y-118251895D01*
X186786667Y-118251895D02*
X186834286Y-118156657D01*
X186834286Y-118156657D02*
X186881905Y-118109038D01*
X186881905Y-118109038D02*
X186977143Y-118061419D01*
X186977143Y-118061419D02*
X187215238Y-118061419D01*
X187215238Y-118061419D02*
X187358095Y-118109038D01*
X188310476Y-119061419D02*
X187739048Y-119061419D01*
X188024762Y-119061419D02*
X188024762Y-118061419D01*
X188024762Y-118061419D02*
X187929524Y-118204276D01*
X187929524Y-118204276D02*
X187834286Y-118299514D01*
X187834286Y-118299514D02*
X187739048Y-118347133D01*
D12*
X185729524Y-87957200D02*
X185872381Y-88004819D01*
X185872381Y-88004819D02*
X186110476Y-88004819D01*
X186110476Y-88004819D02*
X186205714Y-87957200D01*
X186205714Y-87957200D02*
X186253333Y-87909580D01*
X186253333Y-87909580D02*
X186300952Y-87814342D01*
X186300952Y-87814342D02*
X186300952Y-87719104D01*
X186300952Y-87719104D02*
X186253333Y-87623866D01*
X186253333Y-87623866D02*
X186205714Y-87576247D01*
X186205714Y-87576247D02*
X186110476Y-87528628D01*
X186110476Y-87528628D02*
X185920000Y-87481009D01*
X185920000Y-87481009D02*
X185824762Y-87433390D01*
X185824762Y-87433390D02*
X185777143Y-87385771D01*
X185777143Y-87385771D02*
X185729524Y-87290533D01*
X185729524Y-87290533D02*
X185729524Y-87195295D01*
X185729524Y-87195295D02*
X185777143Y-87100057D01*
X185777143Y-87100057D02*
X185824762Y-87052438D01*
X185824762Y-87052438D02*
X185920000Y-87004819D01*
X185920000Y-87004819D02*
X186158095Y-87004819D01*
X186158095Y-87004819D02*
X186300952Y-87052438D01*
X186729524Y-88004819D02*
X186729524Y-87004819D01*
X186729524Y-87004819D02*
X186967619Y-87004819D01*
X186967619Y-87004819D02*
X187110476Y-87052438D01*
X187110476Y-87052438D02*
X187205714Y-87147676D01*
X187205714Y-87147676D02*
X187253333Y-87242914D01*
X187253333Y-87242914D02*
X187300952Y-87433390D01*
X187300952Y-87433390D02*
X187300952Y-87576247D01*
X187300952Y-87576247D02*
X187253333Y-87766723D01*
X187253333Y-87766723D02*
X187205714Y-87861961D01*
X187205714Y-87861961D02*
X187110476Y-87957200D01*
X187110476Y-87957200D02*
X186967619Y-88004819D01*
X186967619Y-88004819D02*
X186729524Y-88004819D01*
X187681905Y-87719104D02*
X188158095Y-87719104D01*
X187586667Y-88004819D02*
X187920000Y-87004819D01*
X187920000Y-87004819D02*
X188253333Y-88004819D01*
X189110476Y-88004819D02*
X188539048Y-88004819D01*
X188824762Y-88004819D02*
X188824762Y-87004819D01*
X188824762Y-87004819D02*
X188729524Y-87147676D01*
X188729524Y-87147676D02*
X188634286Y-87242914D01*
X188634286Y-87242914D02*
X188539048Y-87290533D01*
X194476190Y-87288152D02*
X194476190Y-87954819D01*
X194238095Y-86907200D02*
X194000000Y-87621485D01*
X194000000Y-87621485D02*
X194619047Y-87621485D01*
X195000000Y-87859580D02*
X195047619Y-87907200D01*
X195047619Y-87907200D02*
X195000000Y-87954819D01*
X195000000Y-87954819D02*
X194952381Y-87907200D01*
X194952381Y-87907200D02*
X195000000Y-87859580D01*
X195000000Y-87859580D02*
X195000000Y-87954819D01*
X195380952Y-86954819D02*
X196047618Y-86954819D01*
X196047618Y-86954819D02*
X195619047Y-87954819D01*
X196428571Y-87954819D02*
X196428571Y-86954819D01*
X196999999Y-87954819D02*
X196571428Y-87383390D01*
X196999999Y-86954819D02*
X196428571Y-87526247D01*
X185729524Y-83907200D02*
X185872381Y-83954819D01*
X185872381Y-83954819D02*
X186110476Y-83954819D01*
X186110476Y-83954819D02*
X186205714Y-83907200D01*
X186205714Y-83907200D02*
X186253333Y-83859580D01*
X186253333Y-83859580D02*
X186300952Y-83764342D01*
X186300952Y-83764342D02*
X186300952Y-83669104D01*
X186300952Y-83669104D02*
X186253333Y-83573866D01*
X186253333Y-83573866D02*
X186205714Y-83526247D01*
X186205714Y-83526247D02*
X186110476Y-83478628D01*
X186110476Y-83478628D02*
X185920000Y-83431009D01*
X185920000Y-83431009D02*
X185824762Y-83383390D01*
X185824762Y-83383390D02*
X185777143Y-83335771D01*
X185777143Y-83335771D02*
X185729524Y-83240533D01*
X185729524Y-83240533D02*
X185729524Y-83145295D01*
X185729524Y-83145295D02*
X185777143Y-83050057D01*
X185777143Y-83050057D02*
X185824762Y-83002438D01*
X185824762Y-83002438D02*
X185920000Y-82954819D01*
X185920000Y-82954819D02*
X186158095Y-82954819D01*
X186158095Y-82954819D02*
X186300952Y-83002438D01*
X186729524Y-83954819D02*
X186729524Y-82954819D01*
X186729524Y-82954819D02*
X186967619Y-82954819D01*
X186967619Y-82954819D02*
X187110476Y-83002438D01*
X187110476Y-83002438D02*
X187205714Y-83097676D01*
X187205714Y-83097676D02*
X187253333Y-83192914D01*
X187253333Y-83192914D02*
X187300952Y-83383390D01*
X187300952Y-83383390D02*
X187300952Y-83526247D01*
X187300952Y-83526247D02*
X187253333Y-83716723D01*
X187253333Y-83716723D02*
X187205714Y-83811961D01*
X187205714Y-83811961D02*
X187110476Y-83907200D01*
X187110476Y-83907200D02*
X186967619Y-83954819D01*
X186967619Y-83954819D02*
X186729524Y-83954819D01*
X187681905Y-83669104D02*
X188158095Y-83669104D01*
X187586667Y-83954819D02*
X187920000Y-82954819D01*
X187920000Y-82954819D02*
X188253333Y-83954819D01*
X188777143Y-82954819D02*
X188872381Y-82954819D01*
X188872381Y-82954819D02*
X188967619Y-83002438D01*
X188967619Y-83002438D02*
X189015238Y-83050057D01*
X189015238Y-83050057D02*
X189062857Y-83145295D01*
X189062857Y-83145295D02*
X189110476Y-83335771D01*
X189110476Y-83335771D02*
X189110476Y-83573866D01*
X189110476Y-83573866D02*
X189062857Y-83764342D01*
X189062857Y-83764342D02*
X189015238Y-83859580D01*
X189015238Y-83859580D02*
X188967619Y-83907200D01*
X188967619Y-83907200D02*
X188872381Y-83954819D01*
X188872381Y-83954819D02*
X188777143Y-83954819D01*
X188777143Y-83954819D02*
X188681905Y-83907200D01*
X188681905Y-83907200D02*
X188634286Y-83859580D01*
X188634286Y-83859580D02*
X188586667Y-83764342D01*
X188586667Y-83764342D02*
X188539048Y-83573866D01*
X188539048Y-83573866D02*
X188539048Y-83335771D01*
X188539048Y-83335771D02*
X188586667Y-83145295D01*
X188586667Y-83145295D02*
X188634286Y-83050057D01*
X188634286Y-83050057D02*
X188681905Y-83002438D01*
X188681905Y-83002438D02*
X188777143Y-82954819D01*
X194476190Y-83288152D02*
X194476190Y-83954819D01*
X194238095Y-82907200D02*
X194000000Y-83621485D01*
X194000000Y-83621485D02*
X194619047Y-83621485D01*
X195000000Y-83859580D02*
X195047619Y-83907200D01*
X195047619Y-83907200D02*
X195000000Y-83954819D01*
X195000000Y-83954819D02*
X194952381Y-83907200D01*
X194952381Y-83907200D02*
X195000000Y-83859580D01*
X195000000Y-83859580D02*
X195000000Y-83954819D01*
X195380952Y-82954819D02*
X196047618Y-82954819D01*
X196047618Y-82954819D02*
X195619047Y-83954819D01*
X196428571Y-83954819D02*
X196428571Y-82954819D01*
X196999999Y-83954819D02*
X196571428Y-83383390D01*
X196999999Y-82954819D02*
X196428571Y-83526247D01*
X170357142Y-83954819D02*
X170023809Y-83478628D01*
X169785714Y-83954819D02*
X169785714Y-82954819D01*
X169785714Y-82954819D02*
X170166666Y-82954819D01*
X170166666Y-82954819D02*
X170261904Y-83002438D01*
X170261904Y-83002438D02*
X170309523Y-83050057D01*
X170309523Y-83050057D02*
X170357142Y-83145295D01*
X170357142Y-83145295D02*
X170357142Y-83288152D01*
X170357142Y-83288152D02*
X170309523Y-83383390D01*
X170309523Y-83383390D02*
X170261904Y-83431009D01*
X170261904Y-83431009D02*
X170166666Y-83478628D01*
X170166666Y-83478628D02*
X169785714Y-83478628D01*
X170690476Y-82954819D02*
X171357142Y-83954819D01*
X171357142Y-82954819D02*
X170690476Y-83954819D01*
X172261904Y-83954819D02*
X171690476Y-83954819D01*
X171976190Y-83954819D02*
X171976190Y-82954819D01*
X171976190Y-82954819D02*
X171880952Y-83097676D01*
X171880952Y-83097676D02*
X171785714Y-83192914D01*
X171785714Y-83192914D02*
X171690476Y-83240533D01*
X178389523Y-83954819D02*
X177818095Y-83954819D01*
X178103809Y-83954819D02*
X178103809Y-82954819D01*
X178103809Y-82954819D02*
X178008571Y-83097676D01*
X178008571Y-83097676D02*
X177913333Y-83192914D01*
X177913333Y-83192914D02*
X177818095Y-83240533D01*
X179008571Y-82954819D02*
X179103809Y-82954819D01*
X179103809Y-82954819D02*
X179199047Y-83002438D01*
X179199047Y-83002438D02*
X179246666Y-83050057D01*
X179246666Y-83050057D02*
X179294285Y-83145295D01*
X179294285Y-83145295D02*
X179341904Y-83335771D01*
X179341904Y-83335771D02*
X179341904Y-83573866D01*
X179341904Y-83573866D02*
X179294285Y-83764342D01*
X179294285Y-83764342D02*
X179246666Y-83859580D01*
X179246666Y-83859580D02*
X179199047Y-83907200D01*
X179199047Y-83907200D02*
X179103809Y-83954819D01*
X179103809Y-83954819D02*
X179008571Y-83954819D01*
X179008571Y-83954819D02*
X178913333Y-83907200D01*
X178913333Y-83907200D02*
X178865714Y-83859580D01*
X178865714Y-83859580D02*
X178818095Y-83764342D01*
X178818095Y-83764342D02*
X178770476Y-83573866D01*
X178770476Y-83573866D02*
X178770476Y-83335771D01*
X178770476Y-83335771D02*
X178818095Y-83145295D01*
X178818095Y-83145295D02*
X178865714Y-83050057D01*
X178865714Y-83050057D02*
X178913333Y-83002438D01*
X178913333Y-83002438D02*
X179008571Y-82954819D01*
X179770476Y-83954819D02*
X179770476Y-82954819D01*
X180341904Y-83954819D02*
X179913333Y-83383390D01*
X180341904Y-82954819D02*
X179770476Y-83526247D01*
X186181905Y-95104819D02*
X186753333Y-95104819D01*
X186467619Y-96104819D02*
X186467619Y-95104819D01*
X186991429Y-95104819D02*
X187658095Y-96104819D01*
X187658095Y-95104819D02*
X186991429Y-96104819D01*
X188562857Y-96104819D02*
X187991429Y-96104819D01*
X188277143Y-96104819D02*
X188277143Y-95104819D01*
X188277143Y-95104819D02*
X188181905Y-95247676D01*
X188181905Y-95247676D02*
X188086667Y-95342914D01*
X188086667Y-95342914D02*
X187991429Y-95390533D01*
X194809523Y-95954819D02*
X194238095Y-95954819D01*
X194523809Y-95954819D02*
X194523809Y-94954819D01*
X194523809Y-94954819D02*
X194428571Y-95097676D01*
X194428571Y-95097676D02*
X194333333Y-95192914D01*
X194333333Y-95192914D02*
X194238095Y-95240533D01*
X195428571Y-94954819D02*
X195523809Y-94954819D01*
X195523809Y-94954819D02*
X195619047Y-95002438D01*
X195619047Y-95002438D02*
X195666666Y-95050057D01*
X195666666Y-95050057D02*
X195714285Y-95145295D01*
X195714285Y-95145295D02*
X195761904Y-95335771D01*
X195761904Y-95335771D02*
X195761904Y-95573866D01*
X195761904Y-95573866D02*
X195714285Y-95764342D01*
X195714285Y-95764342D02*
X195666666Y-95859580D01*
X195666666Y-95859580D02*
X195619047Y-95907200D01*
X195619047Y-95907200D02*
X195523809Y-95954819D01*
X195523809Y-95954819D02*
X195428571Y-95954819D01*
X195428571Y-95954819D02*
X195333333Y-95907200D01*
X195333333Y-95907200D02*
X195285714Y-95859580D01*
X195285714Y-95859580D02*
X195238095Y-95764342D01*
X195238095Y-95764342D02*
X195190476Y-95573866D01*
X195190476Y-95573866D02*
X195190476Y-95335771D01*
X195190476Y-95335771D02*
X195238095Y-95145295D01*
X195238095Y-95145295D02*
X195285714Y-95050057D01*
X195285714Y-95050057D02*
X195333333Y-95002438D01*
X195333333Y-95002438D02*
X195428571Y-94954819D01*
X196190476Y-95954819D02*
X196190476Y-94954819D01*
X196761904Y-95954819D02*
X196333333Y-95383390D01*
X196761904Y-94954819D02*
X196190476Y-95526247D01*
X174743333Y-49406819D02*
X174267143Y-49406819D01*
X174267143Y-49406819D02*
X174219524Y-49883009D01*
X174219524Y-49883009D02*
X174267143Y-49835390D01*
X174267143Y-49835390D02*
X174362381Y-49787771D01*
X174362381Y-49787771D02*
X174600476Y-49787771D01*
X174600476Y-49787771D02*
X174695714Y-49835390D01*
X174695714Y-49835390D02*
X174743333Y-49883009D01*
X174743333Y-49883009D02*
X174790952Y-49978247D01*
X174790952Y-49978247D02*
X174790952Y-50216342D01*
X174790952Y-50216342D02*
X174743333Y-50311580D01*
X174743333Y-50311580D02*
X174695714Y-50359200D01*
X174695714Y-50359200D02*
X174600476Y-50406819D01*
X174600476Y-50406819D02*
X174362381Y-50406819D01*
X174362381Y-50406819D02*
X174267143Y-50359200D01*
X174267143Y-50359200D02*
X174219524Y-50311580D01*
X175076667Y-49406819D02*
X175410000Y-50406819D01*
X175410000Y-50406819D02*
X175743333Y-49406819D01*
X176600476Y-50406819D02*
X176029048Y-50406819D01*
X176314762Y-50406819D02*
X176314762Y-49406819D01*
X176314762Y-49406819D02*
X176219524Y-49549676D01*
X176219524Y-49549676D02*
X176124286Y-49644914D01*
X176124286Y-49644914D02*
X176029048Y-49692533D01*
X185729524Y-92007200D02*
X185872381Y-92054819D01*
X185872381Y-92054819D02*
X186110476Y-92054819D01*
X186110476Y-92054819D02*
X186205714Y-92007200D01*
X186205714Y-92007200D02*
X186253333Y-91959580D01*
X186253333Y-91959580D02*
X186300952Y-91864342D01*
X186300952Y-91864342D02*
X186300952Y-91769104D01*
X186300952Y-91769104D02*
X186253333Y-91673866D01*
X186253333Y-91673866D02*
X186205714Y-91626247D01*
X186205714Y-91626247D02*
X186110476Y-91578628D01*
X186110476Y-91578628D02*
X185920000Y-91531009D01*
X185920000Y-91531009D02*
X185824762Y-91483390D01*
X185824762Y-91483390D02*
X185777143Y-91435771D01*
X185777143Y-91435771D02*
X185729524Y-91340533D01*
X185729524Y-91340533D02*
X185729524Y-91245295D01*
X185729524Y-91245295D02*
X185777143Y-91150057D01*
X185777143Y-91150057D02*
X185824762Y-91102438D01*
X185824762Y-91102438D02*
X185920000Y-91054819D01*
X185920000Y-91054819D02*
X186158095Y-91054819D01*
X186158095Y-91054819D02*
X186300952Y-91102438D01*
X186729524Y-92054819D02*
X186729524Y-91054819D01*
X186729524Y-91054819D02*
X186967619Y-91054819D01*
X186967619Y-91054819D02*
X187110476Y-91102438D01*
X187110476Y-91102438D02*
X187205714Y-91197676D01*
X187205714Y-91197676D02*
X187253333Y-91292914D01*
X187253333Y-91292914D02*
X187300952Y-91483390D01*
X187300952Y-91483390D02*
X187300952Y-91626247D01*
X187300952Y-91626247D02*
X187253333Y-91816723D01*
X187253333Y-91816723D02*
X187205714Y-91911961D01*
X187205714Y-91911961D02*
X187110476Y-92007200D01*
X187110476Y-92007200D02*
X186967619Y-92054819D01*
X186967619Y-92054819D02*
X186729524Y-92054819D01*
X187681905Y-91769104D02*
X188158095Y-91769104D01*
X187586667Y-92054819D02*
X187920000Y-91054819D01*
X187920000Y-91054819D02*
X188253333Y-92054819D01*
X188539048Y-91150057D02*
X188586667Y-91102438D01*
X188586667Y-91102438D02*
X188681905Y-91054819D01*
X188681905Y-91054819D02*
X188920000Y-91054819D01*
X188920000Y-91054819D02*
X189015238Y-91102438D01*
X189015238Y-91102438D02*
X189062857Y-91150057D01*
X189062857Y-91150057D02*
X189110476Y-91245295D01*
X189110476Y-91245295D02*
X189110476Y-91340533D01*
X189110476Y-91340533D02*
X189062857Y-91483390D01*
X189062857Y-91483390D02*
X188491429Y-92054819D01*
X188491429Y-92054819D02*
X189110476Y-92054819D01*
X194476190Y-91288152D02*
X194476190Y-91954819D01*
X194238095Y-90907200D02*
X194000000Y-91621485D01*
X194000000Y-91621485D02*
X194619047Y-91621485D01*
X195000000Y-91859580D02*
X195047619Y-91907200D01*
X195047619Y-91907200D02*
X195000000Y-91954819D01*
X195000000Y-91954819D02*
X194952381Y-91907200D01*
X194952381Y-91907200D02*
X195000000Y-91859580D01*
X195000000Y-91859580D02*
X195000000Y-91954819D01*
X195380952Y-90954819D02*
X196047618Y-90954819D01*
X196047618Y-90954819D02*
X195619047Y-91954819D01*
X196428571Y-91954819D02*
X196428571Y-90954819D01*
X196999999Y-91954819D02*
X196571428Y-91383390D01*
X196999999Y-90954819D02*
X196428571Y-91526247D01*
X154830895Y-83888381D02*
X154830895Y-84364571D01*
X154545180Y-83793143D02*
X155545180Y-84126476D01*
X155545180Y-84126476D02*
X154545180Y-84459809D01*
X154545180Y-84793143D02*
X155545180Y-84793143D01*
X155545180Y-84793143D02*
X155545180Y-85031238D01*
X155545180Y-85031238D02*
X155497561Y-85174095D01*
X155497561Y-85174095D02*
X155402323Y-85269333D01*
X155402323Y-85269333D02*
X155307085Y-85316952D01*
X155307085Y-85316952D02*
X155116609Y-85364571D01*
X155116609Y-85364571D02*
X154973752Y-85364571D01*
X154973752Y-85364571D02*
X154783276Y-85316952D01*
X154783276Y-85316952D02*
X154688038Y-85269333D01*
X154688038Y-85269333D02*
X154592800Y-85174095D01*
X154592800Y-85174095D02*
X154545180Y-85031238D01*
X154545180Y-85031238D02*
X154545180Y-84793143D01*
X155545180Y-85697905D02*
X154545180Y-86364571D01*
X155545180Y-86364571D02*
X154545180Y-85697905D01*
X154545180Y-87221714D02*
X154545180Y-86745524D01*
X154545180Y-86745524D02*
X155545180Y-86745524D01*
X155545180Y-87459810D02*
X155545180Y-88078857D01*
X155545180Y-88078857D02*
X155164228Y-87745524D01*
X155164228Y-87745524D02*
X155164228Y-87888381D01*
X155164228Y-87888381D02*
X155116609Y-87983619D01*
X155116609Y-87983619D02*
X155068990Y-88031238D01*
X155068990Y-88031238D02*
X154973752Y-88078857D01*
X154973752Y-88078857D02*
X154735657Y-88078857D01*
X154735657Y-88078857D02*
X154640419Y-88031238D01*
X154640419Y-88031238D02*
X154592800Y-87983619D01*
X154592800Y-87983619D02*
X154545180Y-87888381D01*
X154545180Y-87888381D02*
X154545180Y-87602667D01*
X154545180Y-87602667D02*
X154592800Y-87507429D01*
X154592800Y-87507429D02*
X154640419Y-87459810D01*
X155545180Y-88412191D02*
X155545180Y-89078857D01*
X155545180Y-89078857D02*
X154545180Y-88650286D01*
X155545180Y-89936000D02*
X155545180Y-89459810D01*
X155545180Y-89459810D02*
X155068990Y-89412191D01*
X155068990Y-89412191D02*
X155116609Y-89459810D01*
X155116609Y-89459810D02*
X155164228Y-89555048D01*
X155164228Y-89555048D02*
X155164228Y-89793143D01*
X155164228Y-89793143D02*
X155116609Y-89888381D01*
X155116609Y-89888381D02*
X155068990Y-89936000D01*
X155068990Y-89936000D02*
X154973752Y-89983619D01*
X154973752Y-89983619D02*
X154735657Y-89983619D01*
X154735657Y-89983619D02*
X154640419Y-89936000D01*
X154640419Y-89936000D02*
X154592800Y-89888381D01*
X154592800Y-89888381D02*
X154545180Y-89793143D01*
X154545180Y-89793143D02*
X154545180Y-89555048D01*
X154545180Y-89555048D02*
X154592800Y-89459810D01*
X154592800Y-89459810D02*
X154640419Y-89412191D01*
X186181905Y-99154819D02*
X186753333Y-99154819D01*
X186467619Y-100154819D02*
X186467619Y-99154819D01*
X186991429Y-99154819D02*
X187658095Y-100154819D01*
X187658095Y-99154819D02*
X186991429Y-100154819D01*
X187991429Y-99250057D02*
X188039048Y-99202438D01*
X188039048Y-99202438D02*
X188134286Y-99154819D01*
X188134286Y-99154819D02*
X188372381Y-99154819D01*
X188372381Y-99154819D02*
X188467619Y-99202438D01*
X188467619Y-99202438D02*
X188515238Y-99250057D01*
X188515238Y-99250057D02*
X188562857Y-99345295D01*
X188562857Y-99345295D02*
X188562857Y-99440533D01*
X188562857Y-99440533D02*
X188515238Y-99583390D01*
X188515238Y-99583390D02*
X187943810Y-100154819D01*
X187943810Y-100154819D02*
X188562857Y-100154819D01*
X194809523Y-100454819D02*
X194238095Y-100454819D01*
X194523809Y-100454819D02*
X194523809Y-99454819D01*
X194523809Y-99454819D02*
X194428571Y-99597676D01*
X194428571Y-99597676D02*
X194333333Y-99692914D01*
X194333333Y-99692914D02*
X194238095Y-99740533D01*
X195428571Y-99454819D02*
X195523809Y-99454819D01*
X195523809Y-99454819D02*
X195619047Y-99502438D01*
X195619047Y-99502438D02*
X195666666Y-99550057D01*
X195666666Y-99550057D02*
X195714285Y-99645295D01*
X195714285Y-99645295D02*
X195761904Y-99835771D01*
X195761904Y-99835771D02*
X195761904Y-100073866D01*
X195761904Y-100073866D02*
X195714285Y-100264342D01*
X195714285Y-100264342D02*
X195666666Y-100359580D01*
X195666666Y-100359580D02*
X195619047Y-100407200D01*
X195619047Y-100407200D02*
X195523809Y-100454819D01*
X195523809Y-100454819D02*
X195428571Y-100454819D01*
X195428571Y-100454819D02*
X195333333Y-100407200D01*
X195333333Y-100407200D02*
X195285714Y-100359580D01*
X195285714Y-100359580D02*
X195238095Y-100264342D01*
X195238095Y-100264342D02*
X195190476Y-100073866D01*
X195190476Y-100073866D02*
X195190476Y-99835771D01*
X195190476Y-99835771D02*
X195238095Y-99645295D01*
X195238095Y-99645295D02*
X195285714Y-99550057D01*
X195285714Y-99550057D02*
X195333333Y-99502438D01*
X195333333Y-99502438D02*
X195428571Y-99454819D01*
X196190476Y-100454819D02*
X196190476Y-99454819D01*
X196761904Y-100454819D02*
X196333333Y-99883390D01*
X196761904Y-99454819D02*
X196190476Y-100026247D01*
X178171904Y-49454438D02*
X178076666Y-49406819D01*
X178076666Y-49406819D02*
X177933809Y-49406819D01*
X177933809Y-49406819D02*
X177790952Y-49454438D01*
X177790952Y-49454438D02*
X177695714Y-49549676D01*
X177695714Y-49549676D02*
X177648095Y-49644914D01*
X177648095Y-49644914D02*
X177600476Y-49835390D01*
X177600476Y-49835390D02*
X177600476Y-49978247D01*
X177600476Y-49978247D02*
X177648095Y-50168723D01*
X177648095Y-50168723D02*
X177695714Y-50263961D01*
X177695714Y-50263961D02*
X177790952Y-50359200D01*
X177790952Y-50359200D02*
X177933809Y-50406819D01*
X177933809Y-50406819D02*
X178029047Y-50406819D01*
X178029047Y-50406819D02*
X178171904Y-50359200D01*
X178171904Y-50359200D02*
X178219523Y-50311580D01*
X178219523Y-50311580D02*
X178219523Y-49978247D01*
X178219523Y-49978247D02*
X178029047Y-49978247D01*
X178648095Y-50406819D02*
X178648095Y-49406819D01*
X178648095Y-49406819D02*
X179219523Y-50406819D01*
X179219523Y-50406819D02*
X179219523Y-49406819D01*
X179695714Y-50406819D02*
X179695714Y-49406819D01*
X179695714Y-49406819D02*
X179933809Y-49406819D01*
X179933809Y-49406819D02*
X180076666Y-49454438D01*
X180076666Y-49454438D02*
X180171904Y-49549676D01*
X180171904Y-49549676D02*
X180219523Y-49644914D01*
X180219523Y-49644914D02*
X180267142Y-49835390D01*
X180267142Y-49835390D02*
X180267142Y-49978247D01*
X180267142Y-49978247D02*
X180219523Y-50168723D01*
X180219523Y-50168723D02*
X180171904Y-50263961D01*
X180171904Y-50263961D02*
X180076666Y-50359200D01*
X180076666Y-50359200D02*
X179933809Y-50406819D01*
X179933809Y-50406819D02*
X179695714Y-50406819D01*
X181219523Y-50406819D02*
X180648095Y-50406819D01*
X180933809Y-50406819D02*
X180933809Y-49406819D01*
X180933809Y-49406819D02*
X180838571Y-49549676D01*
X180838571Y-49549676D02*
X180743333Y-49644914D01*
X180743333Y-49644914D02*
X180648095Y-49692533D01*
X170437142Y-87454819D02*
X170103809Y-86978628D01*
X169865714Y-87454819D02*
X169865714Y-86454819D01*
X169865714Y-86454819D02*
X170246666Y-86454819D01*
X170246666Y-86454819D02*
X170341904Y-86502438D01*
X170341904Y-86502438D02*
X170389523Y-86550057D01*
X170389523Y-86550057D02*
X170437142Y-86645295D01*
X170437142Y-86645295D02*
X170437142Y-86788152D01*
X170437142Y-86788152D02*
X170389523Y-86883390D01*
X170389523Y-86883390D02*
X170341904Y-86931009D01*
X170341904Y-86931009D02*
X170246666Y-86978628D01*
X170246666Y-86978628D02*
X169865714Y-86978628D01*
X170770476Y-86454819D02*
X171437142Y-87454819D01*
X171437142Y-86454819D02*
X170770476Y-87454819D01*
X171770476Y-86550057D02*
X171818095Y-86502438D01*
X171818095Y-86502438D02*
X171913333Y-86454819D01*
X171913333Y-86454819D02*
X172151428Y-86454819D01*
X172151428Y-86454819D02*
X172246666Y-86502438D01*
X172246666Y-86502438D02*
X172294285Y-86550057D01*
X172294285Y-86550057D02*
X172341904Y-86645295D01*
X172341904Y-86645295D02*
X172341904Y-86740533D01*
X172341904Y-86740533D02*
X172294285Y-86883390D01*
X172294285Y-86883390D02*
X171722857Y-87454819D01*
X171722857Y-87454819D02*
X172341904Y-87454819D01*
X178389523Y-87454819D02*
X177818095Y-87454819D01*
X178103809Y-87454819D02*
X178103809Y-86454819D01*
X178103809Y-86454819D02*
X178008571Y-86597676D01*
X178008571Y-86597676D02*
X177913333Y-86692914D01*
X177913333Y-86692914D02*
X177818095Y-86740533D01*
X179008571Y-86454819D02*
X179103809Y-86454819D01*
X179103809Y-86454819D02*
X179199047Y-86502438D01*
X179199047Y-86502438D02*
X179246666Y-86550057D01*
X179246666Y-86550057D02*
X179294285Y-86645295D01*
X179294285Y-86645295D02*
X179341904Y-86835771D01*
X179341904Y-86835771D02*
X179341904Y-87073866D01*
X179341904Y-87073866D02*
X179294285Y-87264342D01*
X179294285Y-87264342D02*
X179246666Y-87359580D01*
X179246666Y-87359580D02*
X179199047Y-87407200D01*
X179199047Y-87407200D02*
X179103809Y-87454819D01*
X179103809Y-87454819D02*
X179008571Y-87454819D01*
X179008571Y-87454819D02*
X178913333Y-87407200D01*
X178913333Y-87407200D02*
X178865714Y-87359580D01*
X178865714Y-87359580D02*
X178818095Y-87264342D01*
X178818095Y-87264342D02*
X178770476Y-87073866D01*
X178770476Y-87073866D02*
X178770476Y-86835771D01*
X178770476Y-86835771D02*
X178818095Y-86645295D01*
X178818095Y-86645295D02*
X178865714Y-86550057D01*
X178865714Y-86550057D02*
X178913333Y-86502438D01*
X178913333Y-86502438D02*
X179008571Y-86454819D01*
X179770476Y-87454819D02*
X179770476Y-86454819D01*
X180341904Y-87454819D02*
X179913333Y-86883390D01*
X180341904Y-86454819D02*
X179770476Y-87026247D01*
X169333333Y-90907200D02*
X169476190Y-90954819D01*
X169476190Y-90954819D02*
X169714285Y-90954819D01*
X169714285Y-90954819D02*
X169809523Y-90907200D01*
X169809523Y-90907200D02*
X169857142Y-90859580D01*
X169857142Y-90859580D02*
X169904761Y-90764342D01*
X169904761Y-90764342D02*
X169904761Y-90669104D01*
X169904761Y-90669104D02*
X169857142Y-90573866D01*
X169857142Y-90573866D02*
X169809523Y-90526247D01*
X169809523Y-90526247D02*
X169714285Y-90478628D01*
X169714285Y-90478628D02*
X169523809Y-90431009D01*
X169523809Y-90431009D02*
X169428571Y-90383390D01*
X169428571Y-90383390D02*
X169380952Y-90335771D01*
X169380952Y-90335771D02*
X169333333Y-90240533D01*
X169333333Y-90240533D02*
X169333333Y-90145295D01*
X169333333Y-90145295D02*
X169380952Y-90050057D01*
X169380952Y-90050057D02*
X169428571Y-90002438D01*
X169428571Y-90002438D02*
X169523809Y-89954819D01*
X169523809Y-89954819D02*
X169761904Y-89954819D01*
X169761904Y-89954819D02*
X169904761Y-90002438D01*
X170904761Y-90859580D02*
X170857142Y-90907200D01*
X170857142Y-90907200D02*
X170714285Y-90954819D01*
X170714285Y-90954819D02*
X170619047Y-90954819D01*
X170619047Y-90954819D02*
X170476190Y-90907200D01*
X170476190Y-90907200D02*
X170380952Y-90811961D01*
X170380952Y-90811961D02*
X170333333Y-90716723D01*
X170333333Y-90716723D02*
X170285714Y-90526247D01*
X170285714Y-90526247D02*
X170285714Y-90383390D01*
X170285714Y-90383390D02*
X170333333Y-90192914D01*
X170333333Y-90192914D02*
X170380952Y-90097676D01*
X170380952Y-90097676D02*
X170476190Y-90002438D01*
X170476190Y-90002438D02*
X170619047Y-89954819D01*
X170619047Y-89954819D02*
X170714285Y-89954819D01*
X170714285Y-89954819D02*
X170857142Y-90002438D01*
X170857142Y-90002438D02*
X170904761Y-90050057D01*
X171809523Y-90954819D02*
X171333333Y-90954819D01*
X171333333Y-90954819D02*
X171333333Y-89954819D01*
X172333333Y-89954819D02*
X172428571Y-89954819D01*
X172428571Y-89954819D02*
X172523809Y-90002438D01*
X172523809Y-90002438D02*
X172571428Y-90050057D01*
X172571428Y-90050057D02*
X172619047Y-90145295D01*
X172619047Y-90145295D02*
X172666666Y-90335771D01*
X172666666Y-90335771D02*
X172666666Y-90573866D01*
X172666666Y-90573866D02*
X172619047Y-90764342D01*
X172619047Y-90764342D02*
X172571428Y-90859580D01*
X172571428Y-90859580D02*
X172523809Y-90907200D01*
X172523809Y-90907200D02*
X172428571Y-90954819D01*
X172428571Y-90954819D02*
X172333333Y-90954819D01*
X172333333Y-90954819D02*
X172238095Y-90907200D01*
X172238095Y-90907200D02*
X172190476Y-90859580D01*
X172190476Y-90859580D02*
X172142857Y-90764342D01*
X172142857Y-90764342D02*
X172095238Y-90573866D01*
X172095238Y-90573866D02*
X172095238Y-90335771D01*
X172095238Y-90335771D02*
X172142857Y-90145295D01*
X172142857Y-90145295D02*
X172190476Y-90050057D01*
X172190476Y-90050057D02*
X172238095Y-90002438D01*
X172238095Y-90002438D02*
X172333333Y-89954819D01*
X178056190Y-90288152D02*
X178056190Y-90954819D01*
X177818095Y-89907200D02*
X177580000Y-90621485D01*
X177580000Y-90621485D02*
X178199047Y-90621485D01*
X178580000Y-90859580D02*
X178627619Y-90907200D01*
X178627619Y-90907200D02*
X178580000Y-90954819D01*
X178580000Y-90954819D02*
X178532381Y-90907200D01*
X178532381Y-90907200D02*
X178580000Y-90859580D01*
X178580000Y-90859580D02*
X178580000Y-90954819D01*
X178960952Y-89954819D02*
X179627618Y-89954819D01*
X179627618Y-89954819D02*
X179199047Y-90954819D01*
X180008571Y-90954819D02*
X180008571Y-89954819D01*
X180579999Y-90954819D02*
X180151428Y-90383390D01*
X180579999Y-89954819D02*
X180008571Y-90526247D01*
X169333333Y-97907200D02*
X169476190Y-97954819D01*
X169476190Y-97954819D02*
X169714285Y-97954819D01*
X169714285Y-97954819D02*
X169809523Y-97907200D01*
X169809523Y-97907200D02*
X169857142Y-97859580D01*
X169857142Y-97859580D02*
X169904761Y-97764342D01*
X169904761Y-97764342D02*
X169904761Y-97669104D01*
X169904761Y-97669104D02*
X169857142Y-97573866D01*
X169857142Y-97573866D02*
X169809523Y-97526247D01*
X169809523Y-97526247D02*
X169714285Y-97478628D01*
X169714285Y-97478628D02*
X169523809Y-97431009D01*
X169523809Y-97431009D02*
X169428571Y-97383390D01*
X169428571Y-97383390D02*
X169380952Y-97335771D01*
X169380952Y-97335771D02*
X169333333Y-97240533D01*
X169333333Y-97240533D02*
X169333333Y-97145295D01*
X169333333Y-97145295D02*
X169380952Y-97050057D01*
X169380952Y-97050057D02*
X169428571Y-97002438D01*
X169428571Y-97002438D02*
X169523809Y-96954819D01*
X169523809Y-96954819D02*
X169761904Y-96954819D01*
X169761904Y-96954819D02*
X169904761Y-97002438D01*
X170904761Y-97859580D02*
X170857142Y-97907200D01*
X170857142Y-97907200D02*
X170714285Y-97954819D01*
X170714285Y-97954819D02*
X170619047Y-97954819D01*
X170619047Y-97954819D02*
X170476190Y-97907200D01*
X170476190Y-97907200D02*
X170380952Y-97811961D01*
X170380952Y-97811961D02*
X170333333Y-97716723D01*
X170333333Y-97716723D02*
X170285714Y-97526247D01*
X170285714Y-97526247D02*
X170285714Y-97383390D01*
X170285714Y-97383390D02*
X170333333Y-97192914D01*
X170333333Y-97192914D02*
X170380952Y-97097676D01*
X170380952Y-97097676D02*
X170476190Y-97002438D01*
X170476190Y-97002438D02*
X170619047Y-96954819D01*
X170619047Y-96954819D02*
X170714285Y-96954819D01*
X170714285Y-96954819D02*
X170857142Y-97002438D01*
X170857142Y-97002438D02*
X170904761Y-97050057D01*
X171809523Y-97954819D02*
X171333333Y-97954819D01*
X171333333Y-97954819D02*
X171333333Y-96954819D01*
X172095238Y-97050057D02*
X172142857Y-97002438D01*
X172142857Y-97002438D02*
X172238095Y-96954819D01*
X172238095Y-96954819D02*
X172476190Y-96954819D01*
X172476190Y-96954819D02*
X172571428Y-97002438D01*
X172571428Y-97002438D02*
X172619047Y-97050057D01*
X172619047Y-97050057D02*
X172666666Y-97145295D01*
X172666666Y-97145295D02*
X172666666Y-97240533D01*
X172666666Y-97240533D02*
X172619047Y-97383390D01*
X172619047Y-97383390D02*
X172047619Y-97954819D01*
X172047619Y-97954819D02*
X172666666Y-97954819D01*
X178056190Y-97288152D02*
X178056190Y-97954819D01*
X177818095Y-96907200D02*
X177580000Y-97621485D01*
X177580000Y-97621485D02*
X178199047Y-97621485D01*
X178580000Y-97859580D02*
X178627619Y-97907200D01*
X178627619Y-97907200D02*
X178580000Y-97954819D01*
X178580000Y-97954819D02*
X178532381Y-97907200D01*
X178532381Y-97907200D02*
X178580000Y-97859580D01*
X178580000Y-97859580D02*
X178580000Y-97954819D01*
X178960952Y-96954819D02*
X179627618Y-96954819D01*
X179627618Y-96954819D02*
X179199047Y-97954819D01*
X180008571Y-97954819D02*
X180008571Y-96954819D01*
X180579999Y-97954819D02*
X180151428Y-97383390D01*
X180579999Y-96954819D02*
X180008571Y-97526247D01*
X169333333Y-94407200D02*
X169476190Y-94454819D01*
X169476190Y-94454819D02*
X169714285Y-94454819D01*
X169714285Y-94454819D02*
X169809523Y-94407200D01*
X169809523Y-94407200D02*
X169857142Y-94359580D01*
X169857142Y-94359580D02*
X169904761Y-94264342D01*
X169904761Y-94264342D02*
X169904761Y-94169104D01*
X169904761Y-94169104D02*
X169857142Y-94073866D01*
X169857142Y-94073866D02*
X169809523Y-94026247D01*
X169809523Y-94026247D02*
X169714285Y-93978628D01*
X169714285Y-93978628D02*
X169523809Y-93931009D01*
X169523809Y-93931009D02*
X169428571Y-93883390D01*
X169428571Y-93883390D02*
X169380952Y-93835771D01*
X169380952Y-93835771D02*
X169333333Y-93740533D01*
X169333333Y-93740533D02*
X169333333Y-93645295D01*
X169333333Y-93645295D02*
X169380952Y-93550057D01*
X169380952Y-93550057D02*
X169428571Y-93502438D01*
X169428571Y-93502438D02*
X169523809Y-93454819D01*
X169523809Y-93454819D02*
X169761904Y-93454819D01*
X169761904Y-93454819D02*
X169904761Y-93502438D01*
X170904761Y-94359580D02*
X170857142Y-94407200D01*
X170857142Y-94407200D02*
X170714285Y-94454819D01*
X170714285Y-94454819D02*
X170619047Y-94454819D01*
X170619047Y-94454819D02*
X170476190Y-94407200D01*
X170476190Y-94407200D02*
X170380952Y-94311961D01*
X170380952Y-94311961D02*
X170333333Y-94216723D01*
X170333333Y-94216723D02*
X170285714Y-94026247D01*
X170285714Y-94026247D02*
X170285714Y-93883390D01*
X170285714Y-93883390D02*
X170333333Y-93692914D01*
X170333333Y-93692914D02*
X170380952Y-93597676D01*
X170380952Y-93597676D02*
X170476190Y-93502438D01*
X170476190Y-93502438D02*
X170619047Y-93454819D01*
X170619047Y-93454819D02*
X170714285Y-93454819D01*
X170714285Y-93454819D02*
X170857142Y-93502438D01*
X170857142Y-93502438D02*
X170904761Y-93550057D01*
X171809523Y-94454819D02*
X171333333Y-94454819D01*
X171333333Y-94454819D02*
X171333333Y-93454819D01*
X172666666Y-94454819D02*
X172095238Y-94454819D01*
X172380952Y-94454819D02*
X172380952Y-93454819D01*
X172380952Y-93454819D02*
X172285714Y-93597676D01*
X172285714Y-93597676D02*
X172190476Y-93692914D01*
X172190476Y-93692914D02*
X172095238Y-93740533D01*
X178056190Y-93788152D02*
X178056190Y-94454819D01*
X177818095Y-93407200D02*
X177580000Y-94121485D01*
X177580000Y-94121485D02*
X178199047Y-94121485D01*
X178580000Y-94359580D02*
X178627619Y-94407200D01*
X178627619Y-94407200D02*
X178580000Y-94454819D01*
X178580000Y-94454819D02*
X178532381Y-94407200D01*
X178532381Y-94407200D02*
X178580000Y-94359580D01*
X178580000Y-94359580D02*
X178580000Y-94454819D01*
X178960952Y-93454819D02*
X179627618Y-93454819D01*
X179627618Y-93454819D02*
X179199047Y-94454819D01*
X180008571Y-94454819D02*
X180008571Y-93454819D01*
X180579999Y-94454819D02*
X180151428Y-93883390D01*
X180579999Y-93454819D02*
X180008571Y-94026247D01*
X131928571Y-103614819D02*
X132499999Y-103614819D01*
X132214285Y-104614819D02*
X132214285Y-103614819D01*
X133214285Y-104567200D02*
X133119047Y-104614819D01*
X133119047Y-104614819D02*
X132928571Y-104614819D01*
X132928571Y-104614819D02*
X132833333Y-104567200D01*
X132833333Y-104567200D02*
X132785714Y-104471961D01*
X132785714Y-104471961D02*
X132785714Y-104091009D01*
X132785714Y-104091009D02*
X132833333Y-103995771D01*
X132833333Y-103995771D02*
X132928571Y-103948152D01*
X132928571Y-103948152D02*
X133119047Y-103948152D01*
X133119047Y-103948152D02*
X133214285Y-103995771D01*
X133214285Y-103995771D02*
X133261904Y-104091009D01*
X133261904Y-104091009D02*
X133261904Y-104186247D01*
X133261904Y-104186247D02*
X132785714Y-104281485D01*
X134071428Y-104567200D02*
X133976190Y-104614819D01*
X133976190Y-104614819D02*
X133785714Y-104614819D01*
X133785714Y-104614819D02*
X133690476Y-104567200D01*
X133690476Y-104567200D02*
X133642857Y-104471961D01*
X133642857Y-104471961D02*
X133642857Y-104091009D01*
X133642857Y-104091009D02*
X133690476Y-103995771D01*
X133690476Y-103995771D02*
X133785714Y-103948152D01*
X133785714Y-103948152D02*
X133976190Y-103948152D01*
X133976190Y-103948152D02*
X134071428Y-103995771D01*
X134071428Y-103995771D02*
X134119047Y-104091009D01*
X134119047Y-104091009D02*
X134119047Y-104186247D01*
X134119047Y-104186247D02*
X133642857Y-104281485D01*
X134547619Y-103948152D02*
X134547619Y-104614819D01*
X134547619Y-104043390D02*
X134595238Y-103995771D01*
X134595238Y-103995771D02*
X134690476Y-103948152D01*
X134690476Y-103948152D02*
X134833333Y-103948152D01*
X134833333Y-103948152D02*
X134928571Y-103995771D01*
X134928571Y-103995771D02*
X134976190Y-104091009D01*
X134976190Y-104091009D02*
X134976190Y-104614819D01*
X135404762Y-104567200D02*
X135500000Y-104614819D01*
X135500000Y-104614819D02*
X135690476Y-104614819D01*
X135690476Y-104614819D02*
X135785714Y-104567200D01*
X135785714Y-104567200D02*
X135833333Y-104471961D01*
X135833333Y-104471961D02*
X135833333Y-104424342D01*
X135833333Y-104424342D02*
X135785714Y-104329104D01*
X135785714Y-104329104D02*
X135690476Y-104281485D01*
X135690476Y-104281485D02*
X135547619Y-104281485D01*
X135547619Y-104281485D02*
X135452381Y-104233866D01*
X135452381Y-104233866D02*
X135404762Y-104138628D01*
X135404762Y-104138628D02*
X135404762Y-104091009D01*
X135404762Y-104091009D02*
X135452381Y-103995771D01*
X135452381Y-103995771D02*
X135547619Y-103948152D01*
X135547619Y-103948152D02*
X135690476Y-103948152D01*
X135690476Y-103948152D02*
X135785714Y-103995771D01*
X136166667Y-103948152D02*
X136404762Y-104614819D01*
X136642857Y-103948152D02*
X136404762Y-104614819D01*
X136404762Y-104614819D02*
X136309524Y-104852914D01*
X136309524Y-104852914D02*
X136261905Y-104900533D01*
X136261905Y-104900533D02*
X136166667Y-104948152D01*
X137452381Y-103948152D02*
X137452381Y-104614819D01*
X137214286Y-103567200D02*
X136976191Y-104281485D01*
X136976191Y-104281485D02*
X137595238Y-104281485D01*
X137976191Y-104519580D02*
X138023810Y-104567200D01*
X138023810Y-104567200D02*
X137976191Y-104614819D01*
X137976191Y-104614819D02*
X137928572Y-104567200D01*
X137928572Y-104567200D02*
X137976191Y-104519580D01*
X137976191Y-104519580D02*
X137976191Y-104614819D01*
X138976190Y-104614819D02*
X138404762Y-104614819D01*
X138690476Y-104614819D02*
X138690476Y-103614819D01*
X138690476Y-103614819D02*
X138595238Y-103757676D01*
X138595238Y-103757676D02*
X138500000Y-103852914D01*
X138500000Y-103852914D02*
X138404762Y-103900533D01*
X135799456Y-85656009D02*
X136132789Y-85656009D01*
X136275646Y-86179819D02*
X135799456Y-86179819D01*
X135799456Y-86179819D02*
X135799456Y-85179819D01*
X135799456Y-85179819D02*
X136275646Y-85179819D01*
X136561361Y-85513152D02*
X136942313Y-85513152D01*
X136704218Y-85179819D02*
X136704218Y-86036961D01*
X136704218Y-86036961D02*
X136751837Y-86132200D01*
X136751837Y-86132200D02*
X136847075Y-86179819D01*
X136847075Y-86179819D02*
X136942313Y-86179819D01*
X137275647Y-86179819D02*
X137275647Y-85179819D01*
X137704218Y-86179819D02*
X137704218Y-85656009D01*
X137704218Y-85656009D02*
X137656599Y-85560771D01*
X137656599Y-85560771D02*
X137561361Y-85513152D01*
X137561361Y-85513152D02*
X137418504Y-85513152D01*
X137418504Y-85513152D02*
X137323266Y-85560771D01*
X137323266Y-85560771D02*
X137275647Y-85608390D01*
X138561361Y-86132200D02*
X138466123Y-86179819D01*
X138466123Y-86179819D02*
X138275647Y-86179819D01*
X138275647Y-86179819D02*
X138180409Y-86132200D01*
X138180409Y-86132200D02*
X138132790Y-86036961D01*
X138132790Y-86036961D02*
X138132790Y-85656009D01*
X138132790Y-85656009D02*
X138180409Y-85560771D01*
X138180409Y-85560771D02*
X138275647Y-85513152D01*
X138275647Y-85513152D02*
X138466123Y-85513152D01*
X138466123Y-85513152D02*
X138561361Y-85560771D01*
X138561361Y-85560771D02*
X138608980Y-85656009D01*
X138608980Y-85656009D02*
X138608980Y-85751247D01*
X138608980Y-85751247D02*
X138132790Y-85846485D01*
X139037552Y-86179819D02*
X139037552Y-85513152D01*
X139037552Y-85703628D02*
X139085171Y-85608390D01*
X139085171Y-85608390D02*
X139132790Y-85560771D01*
X139132790Y-85560771D02*
X139228028Y-85513152D01*
X139228028Y-85513152D02*
X139323266Y-85513152D01*
X139656600Y-85513152D02*
X139656600Y-86179819D01*
X139656600Y-85608390D02*
X139704219Y-85560771D01*
X139704219Y-85560771D02*
X139799457Y-85513152D01*
X139799457Y-85513152D02*
X139942314Y-85513152D01*
X139942314Y-85513152D02*
X140037552Y-85560771D01*
X140037552Y-85560771D02*
X140085171Y-85656009D01*
X140085171Y-85656009D02*
X140085171Y-86179819D01*
X140942314Y-86132200D02*
X140847076Y-86179819D01*
X140847076Y-86179819D02*
X140656600Y-86179819D01*
X140656600Y-86179819D02*
X140561362Y-86132200D01*
X140561362Y-86132200D02*
X140513743Y-86036961D01*
X140513743Y-86036961D02*
X140513743Y-85656009D01*
X140513743Y-85656009D02*
X140561362Y-85560771D01*
X140561362Y-85560771D02*
X140656600Y-85513152D01*
X140656600Y-85513152D02*
X140847076Y-85513152D01*
X140847076Y-85513152D02*
X140942314Y-85560771D01*
X140942314Y-85560771D02*
X140989933Y-85656009D01*
X140989933Y-85656009D02*
X140989933Y-85751247D01*
X140989933Y-85751247D02*
X140513743Y-85846485D01*
X141275648Y-85513152D02*
X141656600Y-85513152D01*
X141418505Y-85179819D02*
X141418505Y-86036961D01*
X141418505Y-86036961D02*
X141466124Y-86132200D01*
X141466124Y-86132200D02*
X141561362Y-86179819D01*
X141561362Y-86179819D02*
X141656600Y-86179819D01*
X134176666Y-95612295D02*
X134176666Y-94812295D01*
X134176666Y-94812295D02*
X134343333Y-94812295D01*
X134343333Y-94812295D02*
X134443333Y-94850390D01*
X134443333Y-94850390D02*
X134510000Y-94926580D01*
X134510000Y-94926580D02*
X134543333Y-95002771D01*
X134543333Y-95002771D02*
X134576666Y-95155152D01*
X134576666Y-95155152D02*
X134576666Y-95269438D01*
X134576666Y-95269438D02*
X134543333Y-95421819D01*
X134543333Y-95421819D02*
X134510000Y-95498009D01*
X134510000Y-95498009D02*
X134443333Y-95574200D01*
X134443333Y-95574200D02*
X134343333Y-95612295D01*
X134343333Y-95612295D02*
X134176666Y-95612295D01*
X134776666Y-94812295D02*
X135010000Y-95612295D01*
X135010000Y-95612295D02*
X135243333Y-94812295D01*
X135676666Y-94812295D02*
X135676666Y-95383723D01*
X135676666Y-95383723D02*
X135643333Y-95498009D01*
X135643333Y-95498009D02*
X135576666Y-95574200D01*
X135576666Y-95574200D02*
X135476666Y-95612295D01*
X135476666Y-95612295D02*
X135410000Y-95612295D01*
X136309999Y-94812295D02*
X136176666Y-94812295D01*
X136176666Y-94812295D02*
X136109999Y-94850390D01*
X136109999Y-94850390D02*
X136076666Y-94888485D01*
X136076666Y-94888485D02*
X136009999Y-95002771D01*
X136009999Y-95002771D02*
X135976666Y-95155152D01*
X135976666Y-95155152D02*
X135976666Y-95459914D01*
X135976666Y-95459914D02*
X136009999Y-95536104D01*
X136009999Y-95536104D02*
X136043333Y-95574200D01*
X136043333Y-95574200D02*
X136109999Y-95612295D01*
X136109999Y-95612295D02*
X136243333Y-95612295D01*
X136243333Y-95612295D02*
X136309999Y-95574200D01*
X136309999Y-95574200D02*
X136343333Y-95536104D01*
X136343333Y-95536104D02*
X136376666Y-95459914D01*
X136376666Y-95459914D02*
X136376666Y-95269438D01*
X136376666Y-95269438D02*
X136343333Y-95193247D01*
X136343333Y-95193247D02*
X136309999Y-95155152D01*
X136309999Y-95155152D02*
X136243333Y-95117057D01*
X136243333Y-95117057D02*
X136109999Y-95117057D01*
X136109999Y-95117057D02*
X136043333Y-95155152D01*
X136043333Y-95155152D02*
X136009999Y-95193247D01*
X136009999Y-95193247D02*
X135976666Y-95269438D01*
X136643333Y-95383723D02*
X136976666Y-95383723D01*
X136576666Y-95612295D02*
X136810000Y-94812295D01*
X136810000Y-94812295D02*
X137043333Y-95612295D01*
X134118095Y-70574819D02*
X134118095Y-71384342D01*
X134118095Y-71384342D02*
X134165714Y-71479580D01*
X134165714Y-71479580D02*
X134213333Y-71527200D01*
X134213333Y-71527200D02*
X134308571Y-71574819D01*
X134308571Y-71574819D02*
X134499047Y-71574819D01*
X134499047Y-71574819D02*
X134594285Y-71527200D01*
X134594285Y-71527200D02*
X134641904Y-71479580D01*
X134641904Y-71479580D02*
X134689523Y-71384342D01*
X134689523Y-71384342D02*
X134689523Y-70574819D01*
X135118095Y-71527200D02*
X135260952Y-71574819D01*
X135260952Y-71574819D02*
X135499047Y-71574819D01*
X135499047Y-71574819D02*
X135594285Y-71527200D01*
X135594285Y-71527200D02*
X135641904Y-71479580D01*
X135641904Y-71479580D02*
X135689523Y-71384342D01*
X135689523Y-71384342D02*
X135689523Y-71289104D01*
X135689523Y-71289104D02*
X135641904Y-71193866D01*
X135641904Y-71193866D02*
X135594285Y-71146247D01*
X135594285Y-71146247D02*
X135499047Y-71098628D01*
X135499047Y-71098628D02*
X135308571Y-71051009D01*
X135308571Y-71051009D02*
X135213333Y-71003390D01*
X135213333Y-71003390D02*
X135165714Y-70955771D01*
X135165714Y-70955771D02*
X135118095Y-70860533D01*
X135118095Y-70860533D02*
X135118095Y-70765295D01*
X135118095Y-70765295D02*
X135165714Y-70670057D01*
X135165714Y-70670057D02*
X135213333Y-70622438D01*
X135213333Y-70622438D02*
X135308571Y-70574819D01*
X135308571Y-70574819D02*
X135546666Y-70574819D01*
X135546666Y-70574819D02*
X135689523Y-70622438D01*
X136451428Y-71051009D02*
X136594285Y-71098628D01*
X136594285Y-71098628D02*
X136641904Y-71146247D01*
X136641904Y-71146247D02*
X136689523Y-71241485D01*
X136689523Y-71241485D02*
X136689523Y-71384342D01*
X136689523Y-71384342D02*
X136641904Y-71479580D01*
X136641904Y-71479580D02*
X136594285Y-71527200D01*
X136594285Y-71527200D02*
X136499047Y-71574819D01*
X136499047Y-71574819D02*
X136118095Y-71574819D01*
X136118095Y-71574819D02*
X136118095Y-70574819D01*
X136118095Y-70574819D02*
X136451428Y-70574819D01*
X136451428Y-70574819D02*
X136546666Y-70622438D01*
X136546666Y-70622438D02*
X136594285Y-70670057D01*
X136594285Y-70670057D02*
X136641904Y-70765295D01*
X136641904Y-70765295D02*
X136641904Y-70860533D01*
X136641904Y-70860533D02*
X136594285Y-70955771D01*
X136594285Y-70955771D02*
X136546666Y-71003390D01*
X136546666Y-71003390D02*
X136451428Y-71051009D01*
X136451428Y-71051009D02*
X136118095Y-71051009D01*
X135834819Y-125039047D02*
X134834819Y-125039047D01*
X134834819Y-125039047D02*
X135549104Y-124705714D01*
X135549104Y-124705714D02*
X134834819Y-124372381D01*
X134834819Y-124372381D02*
X135834819Y-124372381D01*
X135834819Y-123896190D02*
X135168152Y-123896190D01*
X134834819Y-123896190D02*
X134882438Y-123943809D01*
X134882438Y-123943809D02*
X134930057Y-123896190D01*
X134930057Y-123896190D02*
X134882438Y-123848571D01*
X134882438Y-123848571D02*
X134834819Y-123896190D01*
X134834819Y-123896190D02*
X134930057Y-123896190D01*
X135787200Y-122991429D02*
X135834819Y-123086667D01*
X135834819Y-123086667D02*
X135834819Y-123277143D01*
X135834819Y-123277143D02*
X135787200Y-123372381D01*
X135787200Y-123372381D02*
X135739580Y-123420000D01*
X135739580Y-123420000D02*
X135644342Y-123467619D01*
X135644342Y-123467619D02*
X135358628Y-123467619D01*
X135358628Y-123467619D02*
X135263390Y-123420000D01*
X135263390Y-123420000D02*
X135215771Y-123372381D01*
X135215771Y-123372381D02*
X135168152Y-123277143D01*
X135168152Y-123277143D02*
X135168152Y-123086667D01*
X135168152Y-123086667D02*
X135215771Y-122991429D01*
X135834819Y-122562857D02*
X135168152Y-122562857D01*
X135358628Y-122562857D02*
X135263390Y-122515238D01*
X135263390Y-122515238D02*
X135215771Y-122467619D01*
X135215771Y-122467619D02*
X135168152Y-122372381D01*
X135168152Y-122372381D02*
X135168152Y-122277143D01*
X135834819Y-121800952D02*
X135787200Y-121896190D01*
X135787200Y-121896190D02*
X135739580Y-121943809D01*
X135739580Y-121943809D02*
X135644342Y-121991428D01*
X135644342Y-121991428D02*
X135358628Y-121991428D01*
X135358628Y-121991428D02*
X135263390Y-121943809D01*
X135263390Y-121943809D02*
X135215771Y-121896190D01*
X135215771Y-121896190D02*
X135168152Y-121800952D01*
X135168152Y-121800952D02*
X135168152Y-121658095D01*
X135168152Y-121658095D02*
X135215771Y-121562857D01*
X135215771Y-121562857D02*
X135263390Y-121515238D01*
X135263390Y-121515238D02*
X135358628Y-121467619D01*
X135358628Y-121467619D02*
X135644342Y-121467619D01*
X135644342Y-121467619D02*
X135739580Y-121515238D01*
X135739580Y-121515238D02*
X135787200Y-121562857D01*
X135787200Y-121562857D02*
X135834819Y-121658095D01*
X135834819Y-121658095D02*
X135834819Y-121800952D01*
X135787200Y-120324761D02*
X135834819Y-120181904D01*
X135834819Y-120181904D02*
X135834819Y-119943809D01*
X135834819Y-119943809D02*
X135787200Y-119848571D01*
X135787200Y-119848571D02*
X135739580Y-119800952D01*
X135739580Y-119800952D02*
X135644342Y-119753333D01*
X135644342Y-119753333D02*
X135549104Y-119753333D01*
X135549104Y-119753333D02*
X135453866Y-119800952D01*
X135453866Y-119800952D02*
X135406247Y-119848571D01*
X135406247Y-119848571D02*
X135358628Y-119943809D01*
X135358628Y-119943809D02*
X135311009Y-120134285D01*
X135311009Y-120134285D02*
X135263390Y-120229523D01*
X135263390Y-120229523D02*
X135215771Y-120277142D01*
X135215771Y-120277142D02*
X135120533Y-120324761D01*
X135120533Y-120324761D02*
X135025295Y-120324761D01*
X135025295Y-120324761D02*
X134930057Y-120277142D01*
X134930057Y-120277142D02*
X134882438Y-120229523D01*
X134882438Y-120229523D02*
X134834819Y-120134285D01*
X134834819Y-120134285D02*
X134834819Y-119896190D01*
X134834819Y-119896190D02*
X134882438Y-119753333D01*
X135834819Y-119324761D02*
X134834819Y-119324761D01*
X134834819Y-119324761D02*
X134834819Y-119086666D01*
X134834819Y-119086666D02*
X134882438Y-118943809D01*
X134882438Y-118943809D02*
X134977676Y-118848571D01*
X134977676Y-118848571D02*
X135072914Y-118800952D01*
X135072914Y-118800952D02*
X135263390Y-118753333D01*
X135263390Y-118753333D02*
X135406247Y-118753333D01*
X135406247Y-118753333D02*
X135596723Y-118800952D01*
X135596723Y-118800952D02*
X135691961Y-118848571D01*
X135691961Y-118848571D02*
X135787200Y-118943809D01*
X135787200Y-118943809D02*
X135834819Y-119086666D01*
X135834819Y-119086666D02*
X135834819Y-119324761D01*
X132296666Y-96882295D02*
X132296666Y-96082295D01*
X132296666Y-96082295D02*
X132530000Y-96653723D01*
X132530000Y-96653723D02*
X132763333Y-96082295D01*
X132763333Y-96082295D02*
X132763333Y-96882295D01*
X133096666Y-96882295D02*
X133096666Y-96082295D01*
X133429999Y-96882295D02*
X133429999Y-96082295D01*
X133429999Y-96082295D02*
X133663333Y-96653723D01*
X133663333Y-96653723D02*
X133896666Y-96082295D01*
X133896666Y-96082295D02*
X133896666Y-96882295D01*
X134163333Y-96082295D02*
X134629999Y-96882295D01*
X134629999Y-96082295D02*
X134163333Y-96882295D01*
X135296666Y-96882295D02*
X135063333Y-96501342D01*
X134896666Y-96882295D02*
X134896666Y-96082295D01*
X134896666Y-96082295D02*
X135163333Y-96082295D01*
X135163333Y-96082295D02*
X135230000Y-96120390D01*
X135230000Y-96120390D02*
X135263333Y-96158485D01*
X135263333Y-96158485D02*
X135296666Y-96234676D01*
X135296666Y-96234676D02*
X135296666Y-96348961D01*
X135296666Y-96348961D02*
X135263333Y-96425152D01*
X135263333Y-96425152D02*
X135230000Y-96463247D01*
X135230000Y-96463247D02*
X135163333Y-96501342D01*
X135163333Y-96501342D02*
X134896666Y-96501342D01*
X135496666Y-96082295D02*
X135896666Y-96082295D01*
X135696666Y-96882295D02*
X135696666Y-96082295D01*
X136496666Y-96882295D02*
X136096666Y-96882295D01*
X136296666Y-96882295D02*
X136296666Y-96082295D01*
X136296666Y-96082295D02*
X136229999Y-96196580D01*
X136229999Y-96196580D02*
X136163333Y-96272771D01*
X136163333Y-96272771D02*
X136096666Y-96310866D01*
X136930000Y-96082295D02*
X136996666Y-96082295D01*
X136996666Y-96082295D02*
X137063333Y-96120390D01*
X137063333Y-96120390D02*
X137096666Y-96158485D01*
X137096666Y-96158485D02*
X137130000Y-96234676D01*
X137130000Y-96234676D02*
X137163333Y-96387057D01*
X137163333Y-96387057D02*
X137163333Y-96577533D01*
X137163333Y-96577533D02*
X137130000Y-96729914D01*
X137130000Y-96729914D02*
X137096666Y-96806104D01*
X137096666Y-96806104D02*
X137063333Y-96844200D01*
X137063333Y-96844200D02*
X136996666Y-96882295D01*
X136996666Y-96882295D02*
X136930000Y-96882295D01*
X136930000Y-96882295D02*
X136863333Y-96844200D01*
X136863333Y-96844200D02*
X136830000Y-96806104D01*
X136830000Y-96806104D02*
X136796666Y-96729914D01*
X136796666Y-96729914D02*
X136763333Y-96577533D01*
X136763333Y-96577533D02*
X136763333Y-96387057D01*
X136763333Y-96387057D02*
X136796666Y-96234676D01*
X136796666Y-96234676D02*
X136830000Y-96158485D01*
X136830000Y-96158485D02*
X136863333Y-96120390D01*
X136863333Y-96120390D02*
X136930000Y-96082295D01*
X137763333Y-96082295D02*
X137630000Y-96082295D01*
X137630000Y-96082295D02*
X137563333Y-96120390D01*
X137563333Y-96120390D02*
X137530000Y-96158485D01*
X137530000Y-96158485D02*
X137463333Y-96272771D01*
X137463333Y-96272771D02*
X137430000Y-96425152D01*
X137430000Y-96425152D02*
X137430000Y-96729914D01*
X137430000Y-96729914D02*
X137463333Y-96806104D01*
X137463333Y-96806104D02*
X137496667Y-96844200D01*
X137496667Y-96844200D02*
X137563333Y-96882295D01*
X137563333Y-96882295D02*
X137696667Y-96882295D01*
X137696667Y-96882295D02*
X137763333Y-96844200D01*
X137763333Y-96844200D02*
X137796667Y-96806104D01*
X137796667Y-96806104D02*
X137830000Y-96729914D01*
X137830000Y-96729914D02*
X137830000Y-96539438D01*
X137830000Y-96539438D02*
X137796667Y-96463247D01*
X137796667Y-96463247D02*
X137763333Y-96425152D01*
X137763333Y-96425152D02*
X137696667Y-96387057D01*
X137696667Y-96387057D02*
X137563333Y-96387057D01*
X137563333Y-96387057D02*
X137496667Y-96425152D01*
X137496667Y-96425152D02*
X137463333Y-96463247D01*
X137463333Y-96463247D02*
X137430000Y-96539438D01*
X138096667Y-96158485D02*
X138130000Y-96120390D01*
X138130000Y-96120390D02*
X138196667Y-96082295D01*
X138196667Y-96082295D02*
X138363334Y-96082295D01*
X138363334Y-96082295D02*
X138430000Y-96120390D01*
X138430000Y-96120390D02*
X138463334Y-96158485D01*
X138463334Y-96158485D02*
X138496667Y-96234676D01*
X138496667Y-96234676D02*
X138496667Y-96310866D01*
X138496667Y-96310866D02*
X138463334Y-96425152D01*
X138463334Y-96425152D02*
X138063334Y-96882295D01*
X138063334Y-96882295D02*
X138496667Y-96882295D01*
X132345619Y-82633723D02*
X133155142Y-82633723D01*
X133155142Y-82633723D02*
X133250380Y-82586104D01*
X133250380Y-82586104D02*
X133298000Y-82538485D01*
X133298000Y-82538485D02*
X133345619Y-82443247D01*
X133345619Y-82443247D02*
X133345619Y-82252771D01*
X133345619Y-82252771D02*
X133298000Y-82157533D01*
X133298000Y-82157533D02*
X133250380Y-82109914D01*
X133250380Y-82109914D02*
X133155142Y-82062295D01*
X133155142Y-82062295D02*
X132345619Y-82062295D01*
X133298000Y-81633723D02*
X133345619Y-81490866D01*
X133345619Y-81490866D02*
X133345619Y-81252771D01*
X133345619Y-81252771D02*
X133298000Y-81157533D01*
X133298000Y-81157533D02*
X133250380Y-81109914D01*
X133250380Y-81109914D02*
X133155142Y-81062295D01*
X133155142Y-81062295D02*
X133059904Y-81062295D01*
X133059904Y-81062295D02*
X132964666Y-81109914D01*
X132964666Y-81109914D02*
X132917047Y-81157533D01*
X132917047Y-81157533D02*
X132869428Y-81252771D01*
X132869428Y-81252771D02*
X132821809Y-81443247D01*
X132821809Y-81443247D02*
X132774190Y-81538485D01*
X132774190Y-81538485D02*
X132726571Y-81586104D01*
X132726571Y-81586104D02*
X132631333Y-81633723D01*
X132631333Y-81633723D02*
X132536095Y-81633723D01*
X132536095Y-81633723D02*
X132440857Y-81586104D01*
X132440857Y-81586104D02*
X132393238Y-81538485D01*
X132393238Y-81538485D02*
X132345619Y-81443247D01*
X132345619Y-81443247D02*
X132345619Y-81205152D01*
X132345619Y-81205152D02*
X132393238Y-81062295D01*
X132821809Y-80300390D02*
X132869428Y-80157533D01*
X132869428Y-80157533D02*
X132917047Y-80109914D01*
X132917047Y-80109914D02*
X133012285Y-80062295D01*
X133012285Y-80062295D02*
X133155142Y-80062295D01*
X133155142Y-80062295D02*
X133250380Y-80109914D01*
X133250380Y-80109914D02*
X133298000Y-80157533D01*
X133298000Y-80157533D02*
X133345619Y-80252771D01*
X133345619Y-80252771D02*
X133345619Y-80633723D01*
X133345619Y-80633723D02*
X132345619Y-80633723D01*
X132345619Y-80633723D02*
X132345619Y-80300390D01*
X132345619Y-80300390D02*
X132393238Y-80205152D01*
X132393238Y-80205152D02*
X132440857Y-80157533D01*
X132440857Y-80157533D02*
X132536095Y-80109914D01*
X132536095Y-80109914D02*
X132631333Y-80109914D01*
X132631333Y-80109914D02*
X132726571Y-80157533D01*
X132726571Y-80157533D02*
X132774190Y-80205152D01*
X132774190Y-80205152D02*
X132821809Y-80300390D01*
X132821809Y-80300390D02*
X132821809Y-80633723D01*
X133345619Y-78871818D02*
X132345619Y-78871818D01*
X132821809Y-78871818D02*
X132821809Y-78300390D01*
X133345619Y-78300390D02*
X132345619Y-78300390D01*
X133345619Y-77681342D02*
X133298000Y-77776580D01*
X133298000Y-77776580D02*
X133250380Y-77824199D01*
X133250380Y-77824199D02*
X133155142Y-77871818D01*
X133155142Y-77871818D02*
X132869428Y-77871818D01*
X132869428Y-77871818D02*
X132774190Y-77824199D01*
X132774190Y-77824199D02*
X132726571Y-77776580D01*
X132726571Y-77776580D02*
X132678952Y-77681342D01*
X132678952Y-77681342D02*
X132678952Y-77538485D01*
X132678952Y-77538485D02*
X132726571Y-77443247D01*
X132726571Y-77443247D02*
X132774190Y-77395628D01*
X132774190Y-77395628D02*
X132869428Y-77348009D01*
X132869428Y-77348009D02*
X133155142Y-77348009D01*
X133155142Y-77348009D02*
X133250380Y-77395628D01*
X133250380Y-77395628D02*
X133298000Y-77443247D01*
X133298000Y-77443247D02*
X133345619Y-77538485D01*
X133345619Y-77538485D02*
X133345619Y-77681342D01*
X133298000Y-76967056D02*
X133345619Y-76871818D01*
X133345619Y-76871818D02*
X133345619Y-76681342D01*
X133345619Y-76681342D02*
X133298000Y-76586104D01*
X133298000Y-76586104D02*
X133202761Y-76538485D01*
X133202761Y-76538485D02*
X133155142Y-76538485D01*
X133155142Y-76538485D02*
X133059904Y-76586104D01*
X133059904Y-76586104D02*
X133012285Y-76681342D01*
X133012285Y-76681342D02*
X133012285Y-76824199D01*
X133012285Y-76824199D02*
X132964666Y-76919437D01*
X132964666Y-76919437D02*
X132869428Y-76967056D01*
X132869428Y-76967056D02*
X132821809Y-76967056D01*
X132821809Y-76967056D02*
X132726571Y-76919437D01*
X132726571Y-76919437D02*
X132678952Y-76824199D01*
X132678952Y-76824199D02*
X132678952Y-76681342D01*
X132678952Y-76681342D02*
X132726571Y-76586104D01*
X132678952Y-76252770D02*
X132678952Y-75871818D01*
X132345619Y-76109913D02*
X133202761Y-76109913D01*
X133202761Y-76109913D02*
X133298000Y-76062294D01*
X133298000Y-76062294D02*
X133345619Y-75967056D01*
X133345619Y-75967056D02*
X133345619Y-75871818D01*
%TO.C,DS1307*%
D11*
X146011000Y-102811000D02*
X173189000Y-102811000D01*
X173189000Y-129989000D01*
X146011000Y-129989000D01*
X146011000Y-102811000D01*
%TO.C,MPU6050*%
X126236000Y-64524000D02*
X147064000Y-64524000D01*
X147064000Y-51316000D01*
X126236000Y-51316000D01*
X126236000Y-64524000D01*
%TO.C,BMP280*%
X167125000Y-55210000D02*
X148075000Y-55210000D01*
X148075000Y-72990000D01*
X167125000Y-72990000D01*
X167125000Y-55210000D01*
%TO.C,INA219*%
X168440000Y-55400000D02*
X188760000Y-55400000D01*
X188760000Y-80800000D01*
X168440000Y-80800000D01*
X168440000Y-55400000D01*
%TO.C,LSM9DS1*%
X174960000Y-102070000D02*
X195280000Y-102070000D01*
X195280000Y-135090000D01*
X174960000Y-135090000D01*
X174960000Y-102070000D01*
D13*
%TO.C,SDA1*%
X183380000Y-87550000D02*
X184150000Y-87550000D01*
X184150000Y-86180000D02*
X184150000Y-88920000D01*
X184150000Y-88920000D02*
X190690000Y-88920000D01*
X190690000Y-86180000D02*
X184150000Y-86180000D01*
X190690000Y-88920000D02*
X190690000Y-86180000D01*
X191460000Y-87550000D02*
X190690000Y-87550000D01*
D14*
%TO.C,G\u002A\u002A\u002A*%
G36*
X192027400Y-67446776D02*
G01*
X192074468Y-67471306D01*
X192112296Y-67491806D01*
X192299350Y-67597795D01*
X192494956Y-67718097D01*
X192692569Y-67848285D01*
X192885644Y-67983932D01*
X193067637Y-68120610D01*
X193203885Y-68230244D01*
X193270406Y-68286531D01*
X193336902Y-68344273D01*
X193400853Y-68401133D01*
X193459739Y-68454776D01*
X193511040Y-68502866D01*
X193552236Y-68543065D01*
X193580806Y-68573039D01*
X193594230Y-68590450D01*
X193594932Y-68592744D01*
X193584714Y-68606002D01*
X193567859Y-68609362D01*
X193556942Y-68608270D01*
X193538689Y-68604835D01*
X193511384Y-68598600D01*
X193473306Y-68589109D01*
X193422738Y-68575905D01*
X193357960Y-68558532D01*
X193277254Y-68536531D01*
X193178901Y-68509447D01*
X193061183Y-68476823D01*
X192922381Y-68438201D01*
X192891047Y-68429468D01*
X192748868Y-68389882D01*
X192627038Y-68356078D01*
X192522749Y-68327295D01*
X192433194Y-68302770D01*
X192355565Y-68281741D01*
X192287053Y-68263445D01*
X192224850Y-68247120D01*
X192166150Y-68232003D01*
X192130010Y-68222835D01*
X191970583Y-68182603D01*
X191970543Y-67996039D01*
X191969930Y-67910487D01*
X191968288Y-67812546D01*
X191965860Y-67713856D01*
X191962892Y-67626057D01*
X191962643Y-67619967D01*
X191959392Y-67542799D01*
X191958595Y-67487662D01*
X191962623Y-67452524D01*
X191973851Y-67435352D01*
X191994652Y-67434114D01*
X192027400Y-67446776D01*
G37*
G36*
X193983239Y-73124684D02*
G01*
X194015175Y-73133065D01*
X194063772Y-73145966D01*
X194125745Y-73162511D01*
X194197806Y-73181828D01*
X194242680Y-73193890D01*
X194319212Y-73214423D01*
X194387693Y-73232685D01*
X194444801Y-73247800D01*
X194487218Y-73258891D01*
X194511624Y-73265082D01*
X194516207Y-73266083D01*
X194516944Y-73277842D01*
X194517651Y-73312031D01*
X194518318Y-73367012D01*
X194518940Y-73441152D01*
X194519509Y-73532813D01*
X194520018Y-73640361D01*
X194520459Y-73762159D01*
X194520825Y-73896573D01*
X194521109Y-74041966D01*
X194521304Y-74196703D01*
X194521401Y-74359148D01*
X194521412Y-74433207D01*
X194521336Y-74639767D01*
X194521101Y-74823229D01*
X194520695Y-74984562D01*
X194520107Y-75124732D01*
X194519325Y-75244707D01*
X194518338Y-75345455D01*
X194517134Y-75427941D01*
X194515703Y-75493134D01*
X194514032Y-75542000D01*
X194512110Y-75575507D01*
X194509926Y-75594622D01*
X194507614Y-75600332D01*
X194492767Y-75597338D01*
X194457818Y-75588892D01*
X194405905Y-75575795D01*
X194340163Y-75558847D01*
X194263729Y-75538852D01*
X194179739Y-75516609D01*
X194173720Y-75515005D01*
X194084200Y-75491153D01*
X193997390Y-75468042D01*
X193917478Y-75446786D01*
X193848656Y-75428499D01*
X193795113Y-75414296D01*
X193763383Y-75405907D01*
X193696960Y-75388316D01*
X193616718Y-75366914D01*
X193526446Y-75342725D01*
X193429930Y-75316773D01*
X193330959Y-75290082D01*
X193233321Y-75263677D01*
X193140802Y-75238581D01*
X193057190Y-75215818D01*
X192986273Y-75196413D01*
X192931839Y-75181388D01*
X192903079Y-75173318D01*
X192832288Y-75153475D01*
X192738616Y-75127759D01*
X192622492Y-75096283D01*
X192484342Y-75059165D01*
X192324595Y-75016519D01*
X192169166Y-74975219D01*
X192111674Y-74958914D01*
X192061383Y-74942695D01*
X192023658Y-74928424D01*
X192003863Y-74917961D01*
X192003723Y-74917836D01*
X191998616Y-74911784D01*
X191994402Y-74902278D01*
X191990995Y-74887147D01*
X191988311Y-74864217D01*
X191986264Y-74831313D01*
X191984770Y-74786264D01*
X191983744Y-74726896D01*
X191983102Y-74651035D01*
X191982758Y-74556508D01*
X191982627Y-74441141D01*
X191982615Y-74377198D01*
X191982615Y-73855661D01*
X192010900Y-73855661D01*
X192043874Y-73859319D01*
X192074069Y-73866469D01*
X192113746Y-73877883D01*
X192170973Y-73893190D01*
X192239847Y-73910882D01*
X192314467Y-73929450D01*
X192388932Y-73947385D01*
X192409759Y-73952277D01*
X192464192Y-73965722D01*
X192532957Y-73983793D01*
X192607349Y-74004152D01*
X192678663Y-74024462D01*
X192680483Y-74024993D01*
X192725973Y-74037966D01*
X192791526Y-74056214D01*
X192873940Y-74078867D01*
X192970012Y-74105053D01*
X193076541Y-74133902D01*
X193190322Y-74164544D01*
X193308154Y-74196108D01*
X193402416Y-74221234D01*
X193961914Y-74370027D01*
X193965029Y-73745862D01*
X193965686Y-73625842D01*
X193966414Y-73513407D01*
X193967191Y-73410792D01*
X193967993Y-73320235D01*
X193968800Y-73243972D01*
X193969588Y-73184239D01*
X193970335Y-73143273D01*
X193971019Y-73123311D01*
X193971251Y-73121696D01*
X193983239Y-73124684D01*
G37*
G36*
X193983656Y-60334441D02*
G01*
X194015429Y-60342819D01*
X194063884Y-60355714D01*
X194125742Y-60372253D01*
X194197728Y-60391563D01*
X194242680Y-60403648D01*
X194319212Y-60424181D01*
X194387693Y-60442443D01*
X194444801Y-60457558D01*
X194487218Y-60468649D01*
X194511624Y-60474840D01*
X194516207Y-60475841D01*
X194516929Y-60487531D01*
X194517540Y-60521230D01*
X194518044Y-60574883D01*
X194518445Y-60646435D01*
X194518746Y-60733832D01*
X194518951Y-60835018D01*
X194519064Y-60947939D01*
X194519088Y-61070539D01*
X194519026Y-61200764D01*
X194518883Y-61336559D01*
X194518661Y-61475868D01*
X194518365Y-61616637D01*
X194517999Y-61756811D01*
X194517565Y-61894335D01*
X194517067Y-62027154D01*
X194516509Y-62153213D01*
X194515895Y-62270457D01*
X194515228Y-62376831D01*
X194514512Y-62470281D01*
X194513750Y-62548750D01*
X194512947Y-62610185D01*
X194512408Y-62639789D01*
X194510732Y-62707431D01*
X194508758Y-62754427D01*
X194505981Y-62784195D01*
X194501893Y-62800154D01*
X194495987Y-62805721D01*
X194487986Y-62804405D01*
X194471302Y-62799027D01*
X194436620Y-62788895D01*
X194383061Y-62773764D01*
X194309743Y-62753388D01*
X194215786Y-62727524D01*
X194100310Y-62695925D01*
X193967930Y-62659844D01*
X193909482Y-62644082D01*
X193837345Y-62624845D01*
X193761128Y-62604685D01*
X193697205Y-62587918D01*
X193620799Y-62567858D01*
X193531233Y-62544140D01*
X193431772Y-62517645D01*
X193325680Y-62489256D01*
X193216220Y-62459853D01*
X193106656Y-62430318D01*
X193000251Y-62401532D01*
X192900269Y-62374378D01*
X192809974Y-62349737D01*
X192732630Y-62328490D01*
X192671499Y-62311519D01*
X192629845Y-62299706D01*
X192625254Y-62298367D01*
X192573380Y-62283608D01*
X192505985Y-62265090D01*
X192430881Y-62244928D01*
X192355884Y-62225237D01*
X192337255Y-62220426D01*
X192269770Y-62202828D01*
X192206105Y-62185787D01*
X192151964Y-62170862D01*
X192113054Y-62159612D01*
X192102626Y-62156357D01*
X192058134Y-62143415D01*
X192013929Y-62132920D01*
X192003754Y-62130990D01*
X191958716Y-62123195D01*
X191966321Y-61591299D01*
X191967968Y-61480612D01*
X191969627Y-61377558D01*
X191971249Y-61284583D01*
X191972785Y-61204131D01*
X191974188Y-61138647D01*
X191975408Y-61090577D01*
X191976397Y-61062365D01*
X191976939Y-61055722D01*
X191988870Y-61057737D01*
X192021050Y-61065265D01*
X192070494Y-61077550D01*
X192134214Y-61093837D01*
X192209227Y-61113372D01*
X192292547Y-61135399D01*
X192303145Y-61138222D01*
X192402573Y-61164727D01*
X192507957Y-61192805D01*
X192613020Y-61220784D01*
X192711482Y-61246993D01*
X192797064Y-61269759D01*
X192842918Y-61281947D01*
X192919245Y-61302248D01*
X192994642Y-61322341D01*
X193063196Y-61340648D01*
X193118994Y-61355589D01*
X193149740Y-61363859D01*
X193193569Y-61375600D01*
X193254042Y-61391669D01*
X193324520Y-61410307D01*
X193398363Y-61429758D01*
X193432497Y-61438721D01*
X193507005Y-61458440D01*
X193582585Y-61478748D01*
X193652143Y-61497722D01*
X193708588Y-61513433D01*
X193727286Y-61518772D01*
X193807019Y-61541616D01*
X193866474Y-61558123D01*
X193908391Y-61568963D01*
X193935513Y-61574808D01*
X193950581Y-61576332D01*
X193955882Y-61574810D01*
X193957118Y-61561964D01*
X193958411Y-61527328D01*
X193959725Y-61473180D01*
X193961024Y-61401795D01*
X193962274Y-61315449D01*
X193963439Y-61216417D01*
X193964483Y-61106975D01*
X193965371Y-60989399D01*
X193965619Y-60950122D01*
X193966381Y-60830647D01*
X193967188Y-60718767D01*
X193968014Y-60616728D01*
X193968839Y-60526775D01*
X193969640Y-60451156D01*
X193970393Y-60392117D01*
X193971077Y-60351904D01*
X193971668Y-60332764D01*
X193971840Y-60331455D01*
X193983656Y-60334441D01*
G37*
G36*
X192472539Y-62546331D02*
G01*
X192521390Y-62548961D01*
X192554058Y-62552951D01*
X192566177Y-62557414D01*
X192581783Y-62564766D01*
X192612230Y-62569022D01*
X192626338Y-62569446D01*
X192660117Y-62571971D01*
X192682690Y-62578318D01*
X192686500Y-62581478D01*
X192702476Y-62589569D01*
X192731718Y-62593451D01*
X192735920Y-62593511D01*
X192773754Y-62598966D01*
X192816402Y-62612557D01*
X192827711Y-62617575D01*
X192869730Y-62632870D01*
X192912653Y-62641154D01*
X192922678Y-62641639D01*
X192953952Y-62644571D01*
X192973578Y-62651810D01*
X192975273Y-62653672D01*
X192992324Y-62663949D01*
X193004926Y-62665704D01*
X193029347Y-62670948D01*
X193063019Y-62684023D01*
X193073401Y-62688992D01*
X193111458Y-62707890D01*
X193157930Y-62730621D01*
X193184113Y-62743285D01*
X193230929Y-62767308D01*
X193271397Y-62792324D01*
X193311206Y-62822642D01*
X193356047Y-62862567D01*
X193407528Y-62912364D01*
X193463923Y-62972526D01*
X193507447Y-63030817D01*
X193542289Y-63094404D01*
X193572639Y-63170454D01*
X193590565Y-63225466D01*
X193623779Y-63333492D01*
X193628263Y-63876317D01*
X193632747Y-64419143D01*
X193911637Y-64494325D01*
X194002046Y-64518696D01*
X194095886Y-64543991D01*
X194186970Y-64568543D01*
X194269116Y-64590684D01*
X194336138Y-64608747D01*
X194352961Y-64613281D01*
X194515396Y-64657055D01*
X194518525Y-65207519D01*
X194518971Y-65320018D01*
X194519014Y-65424787D01*
X194518678Y-65519446D01*
X194517989Y-65601613D01*
X194516975Y-65668906D01*
X194515661Y-65718944D01*
X194514073Y-65749346D01*
X194512509Y-65757971D01*
X194499403Y-65754949D01*
X194465298Y-65746282D01*
X194412438Y-65732566D01*
X194343065Y-65714393D01*
X194259422Y-65692358D01*
X194163752Y-65667055D01*
X194058298Y-65639079D01*
X193945303Y-65609023D01*
X193827011Y-65577481D01*
X193705663Y-65545048D01*
X193583504Y-65512318D01*
X193471601Y-65482259D01*
X193410102Y-65465739D01*
X193341792Y-65447422D01*
X193286909Y-65432731D01*
X193181032Y-65404368D01*
X193095043Y-65381170D01*
X193066270Y-65373308D01*
X193025557Y-65362183D01*
X192969188Y-65346454D01*
X192922550Y-65333030D01*
X192882259Y-65320956D01*
X192844929Y-65309278D01*
X192818854Y-65300864D01*
X192754658Y-65280805D01*
X192683332Y-65259848D01*
X192618544Y-65241987D01*
X192608290Y-65239321D01*
X192490093Y-65208818D01*
X192394007Y-65183637D01*
X192318756Y-65163435D01*
X192263062Y-65147872D01*
X192235292Y-65139635D01*
X192191011Y-65127317D01*
X192138677Y-65114554D01*
X192112167Y-65108772D01*
X192073820Y-65099321D01*
X192045917Y-65089543D01*
X192036255Y-65083362D01*
X192020064Y-65074614D01*
X192000641Y-65072146D01*
X191971959Y-65072146D01*
X191968263Y-64822478D01*
X191967724Y-64767226D01*
X191967397Y-64690659D01*
X191967274Y-64595525D01*
X191967348Y-64484572D01*
X191967615Y-64360548D01*
X191968065Y-64226202D01*
X191968694Y-64084282D01*
X191969050Y-64018987D01*
X192524065Y-64018987D01*
X192524065Y-64119735D01*
X192563169Y-64132364D01*
X192589955Y-64140369D01*
X192633143Y-64152540D01*
X192688514Y-64167758D01*
X192751853Y-64184903D01*
X192818943Y-64202854D01*
X192885566Y-64220491D01*
X192947506Y-64236696D01*
X193000545Y-64250346D01*
X193040468Y-64260324D01*
X193063056Y-64265508D01*
X193066270Y-64265988D01*
X193073058Y-64254767D01*
X193076374Y-64223840D01*
X193076235Y-64177310D01*
X193072659Y-64119282D01*
X193065662Y-64053860D01*
X193065380Y-64051680D01*
X193045683Y-63956045D01*
X193012679Y-63877162D01*
X192964401Y-63810559D01*
X192954830Y-63800439D01*
X192901084Y-63756078D01*
X192839335Y-63721984D01*
X192775175Y-63699900D01*
X192714196Y-63691572D01*
X192661991Y-63698743D01*
X192647848Y-63704701D01*
X192600528Y-63737876D01*
X192565496Y-63783465D01*
X192541745Y-63844020D01*
X192528270Y-63922094D01*
X192524065Y-64018987D01*
X191969050Y-64018987D01*
X191969494Y-63937537D01*
X191970458Y-63788713D01*
X191970924Y-63724539D01*
X191977281Y-62876268D01*
X192005428Y-62800146D01*
X192042252Y-62719279D01*
X192087566Y-62657132D01*
X192145551Y-62608748D01*
X192187152Y-62584777D01*
X192220880Y-62568172D01*
X192248771Y-62557039D01*
X192277044Y-62550285D01*
X192311922Y-62546820D01*
X192359627Y-62545550D01*
X192411655Y-62545382D01*
X192472539Y-62546331D01*
G37*
G36*
X192421791Y-65644217D02*
G01*
X192483102Y-65644864D01*
X192532711Y-65646982D01*
X192577214Y-65651552D01*
X192623209Y-65659556D01*
X192677292Y-65671978D01*
X192746061Y-65689797D01*
X192768806Y-65695877D01*
X192902482Y-65733475D01*
X193015451Y-65769438D01*
X193110869Y-65805256D01*
X193191890Y-65842420D01*
X193261668Y-65882420D01*
X193323357Y-65926747D01*
X193380112Y-65976892D01*
X193395265Y-65991890D01*
X193475193Y-66085492D01*
X193537042Y-66187539D01*
X193582386Y-66301521D01*
X193612799Y-66430925D01*
X193621959Y-66494511D01*
X193637044Y-66620047D01*
X194062541Y-66309337D01*
X194151984Y-66244294D01*
X194235788Y-66183871D01*
X194311895Y-66129515D01*
X194378242Y-66082675D01*
X194432771Y-66044799D01*
X194473419Y-66017333D01*
X194498127Y-66001727D01*
X194504725Y-65998627D01*
X194508590Y-66001787D01*
X194511830Y-66012490D01*
X194514495Y-66032569D01*
X194516638Y-66063856D01*
X194518310Y-66108185D01*
X194519563Y-66167390D01*
X194520448Y-66243303D01*
X194521016Y-66337757D01*
X194521321Y-66452585D01*
X194521412Y-66589621D01*
X194521412Y-66591515D01*
X194521412Y-67184403D01*
X194233584Y-67394665D01*
X193945756Y-67604927D01*
X194007980Y-67623610D01*
X194039513Y-67632650D01*
X194089360Y-67646431D01*
X194152554Y-67663600D01*
X194224128Y-67682809D01*
X194295746Y-67701819D01*
X194521288Y-67761346D01*
X194521350Y-68311819D01*
X194521207Y-68449314D01*
X194520720Y-68564217D01*
X194519851Y-68658003D01*
X194518563Y-68732141D01*
X194516817Y-68788106D01*
X194514576Y-68827367D01*
X194511803Y-68851399D01*
X194508459Y-68861671D01*
X194507253Y-68862293D01*
X194490657Y-68859353D01*
X194455901Y-68851347D01*
X194408057Y-68839493D01*
X194352193Y-68825012D01*
X194351639Y-68824865D01*
X194290526Y-68808216D01*
X194246918Y-68794414D01*
X194214925Y-68780663D01*
X194188661Y-68764167D01*
X194162236Y-68742128D01*
X194146210Y-68727298D01*
X194118640Y-68700788D01*
X194102847Y-68684370D01*
X194101465Y-68680829D01*
X194103568Y-68682203D01*
X194118830Y-68691093D01*
X194119577Y-68683644D01*
X194117970Y-68679187D01*
X194102630Y-68660042D01*
X194082647Y-68645933D01*
X194063738Y-68631434D01*
X194032981Y-68603034D01*
X193994564Y-68564778D01*
X193952677Y-68520707D01*
X193950884Y-68518767D01*
X193910744Y-68476711D01*
X193862405Y-68428306D01*
X193808709Y-68376160D01*
X193752497Y-68322880D01*
X193696611Y-68271072D01*
X193643894Y-68223344D01*
X193597186Y-68182303D01*
X193559331Y-68150556D01*
X193533169Y-68130712D01*
X193521894Y-68125200D01*
X193508625Y-68118389D01*
X193499311Y-68105453D01*
X193482699Y-68085681D01*
X193448801Y-68054260D01*
X193400171Y-68013155D01*
X193339369Y-67964330D01*
X193268950Y-67909746D01*
X193191473Y-67851369D01*
X193109495Y-67791161D01*
X193061514Y-67756815D01*
X193025573Y-67731087D01*
X192942264Y-67673109D01*
X192890840Y-67638271D01*
X192803455Y-67581168D01*
X192706704Y-67520363D01*
X192603948Y-67457776D01*
X192498553Y-67395328D01*
X192393880Y-67334939D01*
X192293293Y-67278527D01*
X192200155Y-67228013D01*
X192193144Y-67224377D01*
X192521095Y-67224377D01*
X192585749Y-67242789D01*
X192627710Y-67254552D01*
X192681967Y-67269489D01*
X192744364Y-67286487D01*
X192810747Y-67304433D01*
X192876960Y-67322211D01*
X192938846Y-67338709D01*
X192992252Y-67352814D01*
X193033022Y-67363410D01*
X193056999Y-67369386D01*
X193061514Y-67370299D01*
X193063665Y-67359042D01*
X193064819Y-67328336D01*
X193064906Y-67282778D01*
X193063858Y-67226965D01*
X193063743Y-67222904D01*
X193061374Y-67158188D01*
X193057894Y-67111297D01*
X193052207Y-67075992D01*
X193043216Y-67046035D01*
X193029824Y-67015184D01*
X193025734Y-67006752D01*
X192974270Y-66928016D01*
X192906214Y-66866419D01*
X192823099Y-66823264D01*
X192802050Y-66816096D01*
X192736325Y-66800349D01*
X192684142Y-66799691D01*
X192639826Y-66814729D01*
X192608204Y-66836784D01*
X192578056Y-66867605D01*
X192556294Y-66904488D01*
X192541458Y-66951987D01*
X192532088Y-67014654D01*
X192527032Y-67089782D01*
X192521095Y-67224377D01*
X192193144Y-67224377D01*
X192117830Y-67185317D01*
X192049681Y-67152359D01*
X192008643Y-67134690D01*
X191956461Y-67114173D01*
X191961800Y-66577456D01*
X191963249Y-66444327D01*
X191964777Y-66332967D01*
X191966479Y-66241081D01*
X191968448Y-66166375D01*
X191970778Y-66106553D01*
X191973564Y-66059320D01*
X191976898Y-66022381D01*
X191980876Y-65993441D01*
X191985590Y-65970205D01*
X191986858Y-65965159D01*
X192019940Y-65866912D01*
X192063565Y-65788505D01*
X192119650Y-65727313D01*
X192190110Y-65680711D01*
X192197010Y-65677247D01*
X192226743Y-65663376D01*
X192253014Y-65653981D01*
X192281571Y-65648218D01*
X192318160Y-65645243D01*
X192368526Y-65644212D01*
X192421791Y-65644217D01*
G37*
G36*
X189292904Y-66182994D02*
G01*
X189325632Y-66193482D01*
X189371020Y-66208830D01*
X189424114Y-66227294D01*
X189479958Y-66247128D01*
X189533599Y-66266589D01*
X189580081Y-66283931D01*
X189614450Y-66297409D01*
X189618285Y-66299003D01*
X189642696Y-66308720D01*
X189680029Y-66323012D01*
X189708527Y-66333694D01*
X189857774Y-66389038D01*
X189986585Y-66436619D01*
X190097032Y-66477188D01*
X190191187Y-66511493D01*
X190271123Y-66540285D01*
X190338911Y-66564313D01*
X190396625Y-66584327D01*
X190446336Y-66601077D01*
X190460540Y-66605755D01*
X190511461Y-66622964D01*
X190578603Y-66646426D01*
X190655677Y-66673883D01*
X190736395Y-66703078D01*
X190814467Y-66731754D01*
X190881668Y-66756918D01*
X190911596Y-66767987D01*
X190959634Y-66785418D01*
X191021198Y-66807565D01*
X191091706Y-66832778D01*
X191166573Y-66859409D01*
X191176457Y-66862915D01*
X191555594Y-67006587D01*
X191914862Y-67162027D01*
X192255913Y-67330240D01*
X192580402Y-67512231D01*
X192889983Y-67709006D01*
X193186308Y-67921568D01*
X193471032Y-68150924D01*
X193745808Y-68398079D01*
X193820623Y-68470057D01*
X194091038Y-68749864D01*
X194341877Y-69042093D01*
X194572739Y-69345926D01*
X194783225Y-69660544D01*
X194972934Y-69985127D01*
X195141466Y-70318857D01*
X195288421Y-70660913D01*
X195413399Y-71010477D01*
X195516000Y-71366730D01*
X195595824Y-71728853D01*
X195652470Y-72096026D01*
X195669613Y-72255377D01*
X195676249Y-72339570D01*
X195682152Y-72439868D01*
X195687152Y-72550474D01*
X195691080Y-72665586D01*
X195693764Y-72779407D01*
X195695034Y-72886135D01*
X195694722Y-72979973D01*
X195692908Y-73049503D01*
X195664904Y-73422289D01*
X195613207Y-73791963D01*
X195538082Y-74157671D01*
X195439795Y-74518557D01*
X195318610Y-74873767D01*
X195174794Y-75222448D01*
X195008612Y-75563744D01*
X194820329Y-75896801D01*
X194796821Y-75935267D01*
X194745617Y-76017035D01*
X194694568Y-76096086D01*
X194645463Y-76169867D01*
X194600091Y-76235824D01*
X194560239Y-76291407D01*
X194527697Y-76334063D01*
X194504252Y-76361238D01*
X194491932Y-76370394D01*
X194478496Y-76360707D01*
X194460230Y-76336915D01*
X194442040Y-76306915D01*
X194428836Y-76278607D01*
X194425154Y-76262930D01*
X194431537Y-76247367D01*
X194448644Y-76217293D01*
X194473413Y-76177922D01*
X194487783Y-76156278D01*
X194649053Y-75900922D01*
X194800908Y-75627301D01*
X194941295Y-75340063D01*
X195068161Y-75043854D01*
X195179453Y-74743321D01*
X195273117Y-74443111D01*
X195315633Y-74282805D01*
X195370620Y-74043677D01*
X195413754Y-73814922D01*
X195445835Y-73589864D01*
X195467665Y-73361823D01*
X195480045Y-73124124D01*
X195483783Y-72881052D01*
X195483072Y-72741599D01*
X195480710Y-72620128D01*
X195476351Y-72510591D01*
X195469651Y-72406943D01*
X195460263Y-72303135D01*
X195447845Y-72193121D01*
X195441755Y-72144497D01*
X195382886Y-71779310D01*
X195300777Y-71418852D01*
X195195950Y-71064054D01*
X195068929Y-70715852D01*
X194920238Y-70375178D01*
X194750398Y-70042967D01*
X194559935Y-69720152D01*
X194349370Y-69407667D01*
X194119227Y-69106446D01*
X193870029Y-68817422D01*
X193602299Y-68541530D01*
X193316561Y-68279702D01*
X193239669Y-68214285D01*
X192981818Y-68009930D01*
X192706417Y-67813488D01*
X192417755Y-67627463D01*
X192120123Y-67454361D01*
X191817811Y-67296688D01*
X191515110Y-67156950D01*
X191239733Y-67046296D01*
X191191120Y-67028155D01*
X191147011Y-67011572D01*
X191115613Y-66999637D01*
X191111570Y-66998075D01*
X191076763Y-66984557D01*
X191083793Y-67043911D01*
X191095188Y-67091094D01*
X191118311Y-67151558D01*
X191150279Y-67219463D01*
X191188213Y-67288965D01*
X191229230Y-67354225D01*
X191253690Y-67388347D01*
X191289963Y-67440464D01*
X191308216Y-67476782D01*
X191309015Y-67496733D01*
X191292923Y-67499750D01*
X191260504Y-67485268D01*
X191212323Y-67452719D01*
X191199396Y-67442870D01*
X191121076Y-67383545D01*
X191028635Y-67315864D01*
X190928307Y-67244311D01*
X190826325Y-67173367D01*
X190791426Y-67149532D01*
X190722792Y-67103174D01*
X190649491Y-67054138D01*
X190574275Y-67004218D01*
X190499897Y-66955208D01*
X190429110Y-66908903D01*
X190364668Y-66867097D01*
X190309322Y-66831582D01*
X190265825Y-66804154D01*
X190236931Y-66786606D01*
X190225491Y-66780720D01*
X190213032Y-66774594D01*
X190183277Y-66757435D01*
X190139268Y-66731075D01*
X190084047Y-66697347D01*
X190020656Y-66658082D01*
X189989451Y-66638578D01*
X189922354Y-66596764D01*
X189861130Y-66559066D01*
X189809046Y-66527459D01*
X189769370Y-66503919D01*
X189745369Y-66490420D01*
X189740700Y-66488202D01*
X189723803Y-66479690D01*
X189689859Y-66460902D01*
X189642480Y-66433897D01*
X189585279Y-66400737D01*
X189521871Y-66363482D01*
X189518104Y-66361254D01*
X189453969Y-66323401D01*
X189395432Y-66289035D01*
X189346230Y-66260333D01*
X189310098Y-66239476D01*
X189290773Y-66228642D01*
X189290408Y-66228450D01*
X189270985Y-66211989D01*
X189263396Y-66193508D01*
X189269644Y-66180834D01*
X189277791Y-66179110D01*
X189292904Y-66182994D01*
G37*
G36*
X191994348Y-69539101D02*
G01*
X192026923Y-69547079D01*
X192071722Y-69558686D01*
X192102937Y-69567024D01*
X192158527Y-69581950D01*
X192228959Y-69600739D01*
X192305800Y-69621146D01*
X192380614Y-69640927D01*
X192391710Y-69643852D01*
X192462388Y-69662532D01*
X192533492Y-69681431D01*
X192597688Y-69698591D01*
X192647641Y-69712059D01*
X192656419Y-69714448D01*
X192709865Y-69728916D01*
X192775441Y-69746491D01*
X192841997Y-69764190D01*
X192866983Y-69770791D01*
X193064740Y-69823075D01*
X193245151Y-69871123D01*
X193407492Y-69914736D01*
X193551038Y-69953714D01*
X193675064Y-69987857D01*
X193778847Y-70016965D01*
X193861663Y-70040838D01*
X193922787Y-70059277D01*
X193961494Y-70072082D01*
X193967930Y-70074516D01*
X194085552Y-70130366D01*
X194193602Y-70199710D01*
X194288043Y-70279337D01*
X194364832Y-70366036D01*
X194398933Y-70417012D01*
X194443162Y-70505841D01*
X194480035Y-70607219D01*
X194505566Y-70709869D01*
X194508598Y-70727286D01*
X194510703Y-70752562D01*
X194512595Y-70799408D01*
X194514273Y-70865430D01*
X194515736Y-70948237D01*
X194516983Y-71045435D01*
X194518014Y-71154631D01*
X194518828Y-71273434D01*
X194519425Y-71399450D01*
X194519802Y-71530286D01*
X194519961Y-71663551D01*
X194519899Y-71796850D01*
X194519617Y-71927793D01*
X194519114Y-72053985D01*
X194518388Y-72173034D01*
X194517439Y-72282548D01*
X194516267Y-72380134D01*
X194514870Y-72463398D01*
X194513249Y-72529949D01*
X194511401Y-72577394D01*
X194509327Y-72603340D01*
X194509170Y-72604311D01*
X194485145Y-72698889D01*
X194447458Y-72777595D01*
X194393251Y-72846059D01*
X194379673Y-72859499D01*
X194331648Y-72901352D01*
X194285563Y-72931105D01*
X194236065Y-72950353D01*
X194177800Y-72960694D01*
X194105415Y-72963723D01*
X194035787Y-72962040D01*
X193961999Y-72957266D01*
X193894875Y-72949731D01*
X193841489Y-72940314D01*
X193823544Y-72935608D01*
X193791843Y-72926433D01*
X193741458Y-72912553D01*
X193677022Y-72895215D01*
X193603169Y-72875660D01*
X193524532Y-72855134D01*
X193504979Y-72850077D01*
X193426849Y-72829792D01*
X193353269Y-72810474D01*
X193288626Y-72793292D01*
X193237311Y-72779415D01*
X193203713Y-72770013D01*
X193198158Y-72768365D01*
X193159595Y-72756914D01*
X193108160Y-72742003D01*
X193054167Y-72726620D01*
X193047466Y-72724732D01*
X192999513Y-72710914D01*
X192958224Y-72698426D01*
X192930942Y-72689506D01*
X192927144Y-72688084D01*
X192901045Y-72678854D01*
X192865474Y-72668647D01*
X192814052Y-72655666D01*
X192800806Y-72652458D01*
X192765289Y-72643515D01*
X192714276Y-72630202D01*
X192655465Y-72614571D01*
X192596550Y-72598676D01*
X192545227Y-72584570D01*
X192524065Y-72578616D01*
X192457732Y-72560726D01*
X192393296Y-72545098D01*
X192349598Y-72535882D01*
X192319859Y-72528364D01*
X192301469Y-72520593D01*
X192283928Y-72513704D01*
X192250661Y-72504479D01*
X192217243Y-72496753D01*
X192172956Y-72486804D01*
X192134075Y-72477151D01*
X192114969Y-72471716D01*
X192084943Y-72462596D01*
X192044662Y-72451023D01*
X192028088Y-72446416D01*
X191971286Y-72430814D01*
X191967926Y-71888880D01*
X191967286Y-71777087D01*
X191966791Y-71672882D01*
X191966446Y-71578689D01*
X191966255Y-71496935D01*
X191966221Y-71430048D01*
X191966349Y-71380452D01*
X191966644Y-71350575D01*
X191966997Y-71342510D01*
X191978782Y-71344150D01*
X192010248Y-71351306D01*
X192057874Y-71363102D01*
X192118141Y-71378662D01*
X192187529Y-71397108D01*
X192201625Y-71400914D01*
X192284037Y-71423159D01*
X192369009Y-71445993D01*
X192449856Y-71467628D01*
X192519889Y-71486272D01*
X192566177Y-71498499D01*
X192628428Y-71514918D01*
X192704982Y-71535226D01*
X192786908Y-71557046D01*
X192865274Y-71578005D01*
X192879015Y-71581692D01*
X193011097Y-71617069D01*
X193145793Y-71653004D01*
X193277476Y-71688005D01*
X193400514Y-71720574D01*
X193509280Y-71749219D01*
X193564505Y-71763681D01*
X193623929Y-71777917D01*
X193680754Y-71789291D01*
X193727490Y-71796422D01*
X193751192Y-71798153D01*
X193818740Y-71787580D01*
X193874912Y-71757173D01*
X193918518Y-71708900D01*
X193948368Y-71644730D01*
X193963274Y-71566630D01*
X193962045Y-71476568D01*
X193959285Y-71453869D01*
X193934179Y-71351010D01*
X193890174Y-71262760D01*
X193827622Y-71189624D01*
X193746877Y-71132108D01*
X193727235Y-71121861D01*
X193692074Y-71107231D01*
X193639550Y-71088759D01*
X193575658Y-71068402D01*
X193506391Y-71048116D01*
X193474609Y-71039410D01*
X193403708Y-71020417D01*
X193334140Y-71001730D01*
X193272291Y-70985066D01*
X193224549Y-70972147D01*
X193209901Y-70968158D01*
X193159181Y-70954420D01*
X193097449Y-70937871D01*
X193036973Y-70921797D01*
X193029418Y-70919801D01*
X192970071Y-70904017D01*
X192907779Y-70887251D01*
X192854810Y-70872808D01*
X192848934Y-70871187D01*
X192812473Y-70861226D01*
X192757940Y-70846486D01*
X192690522Y-70828360D01*
X192615408Y-70808245D01*
X192537783Y-70787533D01*
X192536097Y-70787084D01*
X192450252Y-70764196D01*
X192359023Y-70739821D01*
X192269945Y-70715976D01*
X192190553Y-70694678D01*
X192139034Y-70680816D01*
X191976599Y-70637024D01*
X191973470Y-70086560D01*
X191973023Y-69974063D01*
X191972981Y-69869295D01*
X191973317Y-69774638D01*
X191974005Y-69692474D01*
X191975020Y-69625183D01*
X191976334Y-69575148D01*
X191977922Y-69544749D01*
X191979486Y-69536127D01*
X191994348Y-69539101D01*
G37*
G36*
X192016562Y-75519109D02*
G01*
X192019015Y-75519434D01*
X192061773Y-75529090D01*
X192102150Y-75544010D01*
X192104063Y-75544945D01*
X192140661Y-75558418D01*
X192175468Y-75564230D01*
X192176269Y-75564235D01*
X192203360Y-75568141D01*
X192217243Y-75576268D01*
X192233272Y-75584462D01*
X192262323Y-75588267D01*
X192265372Y-75588300D01*
X192295091Y-75591542D01*
X192312835Y-75599436D01*
X192313501Y-75600332D01*
X192329995Y-75609460D01*
X192351920Y-75612364D01*
X192401303Y-75618605D01*
X192449942Y-75634902D01*
X192488357Y-75657618D01*
X192499930Y-75669153D01*
X192505847Y-75677844D01*
X192510555Y-75688929D01*
X192514142Y-75704905D01*
X192516698Y-75728273D01*
X192518310Y-75761532D01*
X192519068Y-75807183D01*
X192519060Y-75867723D01*
X192518375Y-75945653D01*
X192517101Y-76043473D01*
X192515965Y-76121219D01*
X192514089Y-76298147D01*
X192514136Y-76452199D01*
X192516164Y-76584493D01*
X192520233Y-76696144D01*
X192526399Y-76788270D01*
X192534722Y-76861986D01*
X192545261Y-76918411D01*
X192558073Y-76958659D01*
X192560068Y-76963102D01*
X192596926Y-77022447D01*
X192643661Y-77069338D01*
X192696601Y-77102967D01*
X192752075Y-77122524D01*
X192806410Y-77127203D01*
X192855935Y-77116193D01*
X192896978Y-77088687D01*
X192925868Y-77043876D01*
X192925952Y-77043667D01*
X192932066Y-77024583D01*
X192936785Y-76999609D01*
X192940275Y-76965686D01*
X192942700Y-76919754D01*
X192944227Y-76858756D01*
X192945018Y-76779631D01*
X192945240Y-76685996D01*
X192946503Y-76543737D01*
X192950376Y-76423327D01*
X192957057Y-76322670D01*
X192966744Y-76239672D01*
X192979638Y-76172238D01*
X192995936Y-76118272D01*
X193000054Y-76107864D01*
X193022285Y-76070206D01*
X193058468Y-76025176D01*
X193102622Y-75978884D01*
X193148769Y-75937444D01*
X193190928Y-75906968D01*
X193203137Y-75900265D01*
X193241532Y-75888599D01*
X193297746Y-75880526D01*
X193365799Y-75876054D01*
X193439713Y-75875197D01*
X193513510Y-75877964D01*
X193581211Y-75884367D01*
X193636838Y-75894417D01*
X193654292Y-75899434D01*
X193706636Y-75915546D01*
X193763236Y-75930982D01*
X193787447Y-75936853D01*
X193892056Y-75963956D01*
X193980142Y-75995281D01*
X194058020Y-76034336D01*
X194132003Y-76084627D01*
X194208408Y-76149662D01*
X194260299Y-76199455D01*
X194329022Y-76270765D01*
X194381196Y-76333170D01*
X194419994Y-76391551D01*
X194448592Y-76450792D01*
X194470162Y-76515774D01*
X194473116Y-76526812D01*
X194484626Y-76570991D01*
X194495762Y-76613727D01*
X194498197Y-76623070D01*
X194499989Y-76641637D01*
X194501770Y-76682317D01*
X194503513Y-76743157D01*
X194505187Y-76822206D01*
X194506765Y-76917512D01*
X194508219Y-77027122D01*
X194509519Y-77149086D01*
X194510638Y-77281450D01*
X194511547Y-77422264D01*
X194512217Y-77569575D01*
X194512284Y-77588906D01*
X194515396Y-78512630D01*
X194485315Y-78506725D01*
X194463836Y-78501593D01*
X194423823Y-78491205D01*
X194369917Y-78476798D01*
X194306756Y-78459607D01*
X194262719Y-78447465D01*
X194193987Y-78428447D01*
X194129545Y-78410673D01*
X194074651Y-78395589D01*
X194034560Y-78384641D01*
X194019883Y-78380681D01*
X193969563Y-78367253D01*
X193965727Y-77702717D01*
X193964886Y-77559516D01*
X193964094Y-77438373D01*
X193963265Y-77337279D01*
X193962311Y-77254230D01*
X193961146Y-77187216D01*
X193959684Y-77134233D01*
X193957837Y-77093272D01*
X193955520Y-77062328D01*
X193952645Y-77039392D01*
X193949127Y-77022459D01*
X193944877Y-77009521D01*
X193939811Y-76998572D01*
X193934948Y-76989602D01*
X193884831Y-76918347D01*
X193825745Y-76868556D01*
X193758581Y-76840956D01*
X193751050Y-76839366D01*
X193685359Y-76833131D01*
X193631016Y-76840906D01*
X193591586Y-76861761D01*
X193573858Y-76885617D01*
X193559202Y-76919633D01*
X193547577Y-76949762D01*
X193538662Y-76979277D01*
X193532137Y-77011447D01*
X193527680Y-77049547D01*
X193524970Y-77096846D01*
X193523686Y-77156616D01*
X193523508Y-77232129D01*
X193524115Y-77326657D01*
X193524659Y-77387116D01*
X193525552Y-77490274D01*
X193525983Y-77572520D01*
X193525778Y-77637003D01*
X193524766Y-77686872D01*
X193522773Y-77725278D01*
X193519627Y-77755370D01*
X193515156Y-77780298D01*
X193509187Y-77803212D01*
X193501548Y-77827261D01*
X193500359Y-77830828D01*
X193461589Y-77911635D01*
X193404505Y-77983115D01*
X193334237Y-78039282D01*
X193310181Y-78052851D01*
X193242799Y-78078068D01*
X193161590Y-78094144D01*
X193075509Y-78099693D01*
X193023401Y-78097218D01*
X192964325Y-78088711D01*
X192889143Y-78073752D01*
X192804406Y-78054001D01*
X192716664Y-78031122D01*
X192632466Y-78006775D01*
X192558364Y-77982623D01*
X192528314Y-77971592D01*
X192393845Y-77907949D01*
X192276319Y-77827531D01*
X192176322Y-77730961D01*
X192094442Y-77618861D01*
X192031268Y-77491855D01*
X192005049Y-77416999D01*
X191999868Y-77399548D01*
X191995371Y-77382527D01*
X191991497Y-77364139D01*
X191988182Y-77342590D01*
X191985363Y-77316085D01*
X191982978Y-77282828D01*
X191980964Y-77241024D01*
X191979258Y-77188877D01*
X191977796Y-77124593D01*
X191976517Y-77046376D01*
X191975357Y-76952431D01*
X191974253Y-76840963D01*
X191973143Y-76710175D01*
X191971964Y-76558274D01*
X191971139Y-76448603D01*
X191970120Y-76304713D01*
X191969257Y-76167391D01*
X191968557Y-76038603D01*
X191968026Y-75920318D01*
X191967668Y-75814504D01*
X191967489Y-75723127D01*
X191967495Y-75648157D01*
X191967691Y-75591560D01*
X191968083Y-75555305D01*
X191968601Y-75541732D01*
X191973837Y-75523528D01*
X191987357Y-75517078D01*
X192016562Y-75519109D01*
G37*
D13*
%TO.C,SDA0*%
X183380000Y-83500000D02*
X184150000Y-83500000D01*
X184150000Y-82130000D02*
X184150000Y-84870000D01*
X184150000Y-84870000D02*
X190690000Y-84870000D01*
X190690000Y-82130000D02*
X184150000Y-82130000D01*
X190690000Y-84870000D02*
X190690000Y-82130000D01*
X191460000Y-83500000D02*
X190690000Y-83500000D01*
%TO.C,RX1*%
X166960000Y-83500000D02*
X167730000Y-83500000D01*
X167730000Y-82130000D02*
X167730000Y-84870000D01*
X167730000Y-84870000D02*
X174270000Y-84870000D01*
X174270000Y-82130000D02*
X167730000Y-82130000D01*
X174270000Y-84870000D02*
X174270000Y-82130000D01*
X175040000Y-83500000D02*
X174270000Y-83500000D01*
%TO.C,TX1*%
X183380000Y-95650000D02*
X184150000Y-95650000D01*
X184150000Y-94280000D02*
X184150000Y-97020000D01*
X184150000Y-97020000D02*
X190690000Y-97020000D01*
X190690000Y-94280000D02*
X184150000Y-94280000D01*
X190690000Y-97020000D02*
X190690000Y-94280000D01*
X191460000Y-95650000D02*
X190690000Y-95650000D01*
%TO.C,5V1*%
X173960000Y-50650000D02*
X176860000Y-50650000D01*
X173960000Y-53550000D02*
X173960000Y-50650000D01*
X176860000Y-50650000D02*
X176860000Y-53550000D01*
X176860000Y-53550000D02*
X173960000Y-53550000D01*
%TO.C,SDA2*%
X183380000Y-91600000D02*
X184150000Y-91600000D01*
X184150000Y-90230000D02*
X184150000Y-92970000D01*
X184150000Y-92970000D02*
X190690000Y-92970000D01*
X190690000Y-90230000D02*
X184150000Y-90230000D01*
X190690000Y-92970000D02*
X190690000Y-90230000D01*
X191460000Y-91600000D02*
X190690000Y-91600000D01*
%TO.C,ADXL375*%
D11*
X163540000Y-74490000D02*
X145760000Y-74490000D01*
X145760000Y-99890000D01*
X163540000Y-99890000D01*
X163540000Y-74490000D01*
D13*
%TO.C,TX2*%
X183380000Y-99700000D02*
X184150000Y-99700000D01*
X184150000Y-98330000D02*
X184150000Y-101070000D01*
X184150000Y-101070000D02*
X190690000Y-101070000D01*
X190690000Y-98330000D02*
X184150000Y-98330000D01*
X190690000Y-101070000D02*
X190690000Y-98330000D01*
X191460000Y-99700000D02*
X190690000Y-99700000D01*
%TO.C,GND1*%
X177960000Y-50650000D02*
X180860000Y-50650000D01*
X177960000Y-53550000D02*
X177960000Y-50650000D01*
X180860000Y-50650000D02*
X180860000Y-53550000D01*
X180860000Y-53550000D02*
X177960000Y-53550000D01*
%TO.C,RX2*%
X167040000Y-87000000D02*
X167810000Y-87000000D01*
X167810000Y-85630000D02*
X167810000Y-88370000D01*
X167810000Y-88370000D02*
X174350000Y-88370000D01*
X174350000Y-85630000D02*
X167810000Y-85630000D01*
X174350000Y-88370000D02*
X174350000Y-85630000D01*
X175120000Y-87000000D02*
X174350000Y-87000000D01*
%TO.C,SCL0*%
X166960000Y-90500000D02*
X167730000Y-90500000D01*
X167730000Y-89130000D02*
X167730000Y-91870000D01*
X167730000Y-91870000D02*
X174270000Y-91870000D01*
X174270000Y-89130000D02*
X167730000Y-89130000D01*
X174270000Y-91870000D02*
X174270000Y-89130000D01*
X175040000Y-90500000D02*
X174270000Y-90500000D01*
%TO.C,SCL2*%
X166960000Y-97500000D02*
X167730000Y-97500000D01*
X167730000Y-96130000D02*
X167730000Y-98870000D01*
X167730000Y-98870000D02*
X174270000Y-98870000D01*
X174270000Y-96130000D02*
X167730000Y-96130000D01*
X174270000Y-98870000D02*
X174270000Y-96130000D01*
X175040000Y-97500000D02*
X174270000Y-97500000D01*
%TO.C,SCL1*%
X166960000Y-94000000D02*
X167730000Y-94000000D01*
X167730000Y-92630000D02*
X167730000Y-95370000D01*
X167730000Y-95370000D02*
X174270000Y-95370000D01*
X174270000Y-92630000D02*
X167730000Y-92630000D01*
X174270000Y-95370000D02*
X174270000Y-92630000D01*
X175040000Y-94000000D02*
X174270000Y-94000000D01*
D12*
%TO.C,U1*%
X139190000Y-66040000D02*
X139190000Y-67310000D01*
X131570000Y-66040000D02*
X139190000Y-66040000D01*
X144270000Y-67310000D02*
X144270000Y-128270000D01*
X131570000Y-67310000D02*
X131570000Y-66040000D01*
X126490000Y-67310000D02*
X144270000Y-67310000D01*
X139190000Y-72390000D02*
X139190000Y-67310000D01*
X131570000Y-72390000D02*
X131570000Y-67310000D01*
X131570000Y-72390000D02*
X139190000Y-72390000D01*
X132080800Y-73609200D02*
X132080800Y-76149200D01*
X132080800Y-73609200D02*
X132080800Y-86309200D01*
X129540800Y-73609200D02*
X132080800Y-73609200D01*
X141731600Y-80540000D02*
X141481600Y-80540000D01*
X141481600Y-80540000D02*
X135481600Y-80540000D01*
X135481600Y-80540000D02*
X135481600Y-84540000D01*
X141731600Y-84540000D02*
X141731600Y-80540000D01*
X135481600Y-84540000D02*
X141731600Y-84540000D01*
X132080800Y-86309200D02*
X129540800Y-86309200D01*
X129540800Y-86309200D02*
X129540800Y-73609200D01*
X141730000Y-90170000D02*
X129030000Y-90170000D01*
X129030000Y-90170000D02*
X129030000Y-102870000D01*
X141730000Y-102870000D02*
X141730000Y-90170000D01*
X129030000Y-102870000D02*
X141730000Y-102870000D01*
X136650000Y-107950000D02*
X136650000Y-111760000D01*
X134110000Y-107950000D02*
X136650000Y-107950000D01*
X136650000Y-111760000D02*
X134110000Y-111760000D01*
X134110000Y-111760000D02*
X134110000Y-107950000D01*
X141730000Y-115570000D02*
X129030000Y-115570000D01*
X129030000Y-115570000D02*
X129030000Y-128270000D01*
X140460000Y-127000000D02*
X130300000Y-127000000D01*
X130300000Y-127000000D02*
X130300000Y-128270000D01*
X144270000Y-128270000D02*
X126490000Y-128270000D01*
X141730000Y-128270000D02*
X141730000Y-115570000D01*
X140460000Y-128270000D02*
X140460000Y-127000000D01*
X126490000Y-128270000D02*
X126490000Y-67310000D01*
X136278026Y-109855000D02*
G75*
G02*
X134481974Y-109855000I-898026J0D01*
G01*
X134481974Y-109855000D02*
G75*
G02*
X136278026Y-109855000I898026J0D01*
G01*
D11*
X136449000Y-98447000D02*
X136068000Y-98701000D01*
X135814000Y-98447000D01*
X136195000Y-98193000D01*
X136449000Y-98447000D01*
G36*
X136449000Y-98447000D02*
G01*
X136068000Y-98701000D01*
X135814000Y-98447000D01*
X136195000Y-98193000D01*
X136449000Y-98447000D01*
G37*
X135941000Y-98828000D02*
X135560000Y-99082000D01*
X135306000Y-98828000D01*
X135687000Y-98574000D01*
X135941000Y-98828000D01*
G36*
X135941000Y-98828000D02*
G01*
X135560000Y-99082000D01*
X135306000Y-98828000D01*
X135687000Y-98574000D01*
X135941000Y-98828000D01*
G37*
X136322000Y-99209000D02*
X135941000Y-99463000D01*
X135687000Y-99209000D01*
X136068000Y-98955000D01*
X136322000Y-99209000D01*
G36*
X136322000Y-99209000D02*
G01*
X135941000Y-99463000D01*
X135687000Y-99209000D01*
X136068000Y-98955000D01*
X136322000Y-99209000D01*
G37*
X135433000Y-99209000D02*
X135052000Y-99463000D01*
X134798000Y-99209000D01*
X135179000Y-98955000D01*
X135433000Y-99209000D01*
G36*
X135433000Y-99209000D02*
G01*
X135052000Y-99463000D01*
X134798000Y-99209000D01*
X135179000Y-98955000D01*
X135433000Y-99209000D01*
G37*
X135814000Y-99590000D02*
X135433000Y-99844000D01*
X135179000Y-99590000D01*
X135560000Y-99336000D01*
X135814000Y-99590000D01*
G36*
X135814000Y-99590000D02*
G01*
X135433000Y-99844000D01*
X135179000Y-99590000D01*
X135560000Y-99336000D01*
X135814000Y-99590000D01*
G37*
X135306000Y-99971000D02*
X134925000Y-100225000D01*
X134671000Y-99971000D01*
X135052000Y-99717000D01*
X135306000Y-99971000D01*
G36*
X135306000Y-99971000D02*
G01*
X134925000Y-100225000D01*
X134671000Y-99971000D01*
X135052000Y-99717000D01*
X135306000Y-99971000D01*
G37*
X135687000Y-100352000D02*
X135306000Y-100606000D01*
X135052000Y-100352000D01*
X135433000Y-100098000D01*
X135687000Y-100352000D01*
G36*
X135687000Y-100352000D02*
G01*
X135306000Y-100606000D01*
X135052000Y-100352000D01*
X135433000Y-100098000D01*
X135687000Y-100352000D01*
G37*
X136068000Y-100733000D02*
X135687000Y-100987000D01*
X135433000Y-100733000D01*
X135814000Y-100479000D01*
X136068000Y-100733000D01*
G36*
X136068000Y-100733000D02*
G01*
X135687000Y-100987000D01*
X135433000Y-100733000D01*
X135814000Y-100479000D01*
X136068000Y-100733000D01*
G37*
%TD*%
M02*
